Montserrat-Bold.ufo
<glyph name="three" format="2">
  <advance width="614"/>
  <unicode hex="0033"/>
  <outline>
    <contour>
      <point x="270" y="-16" type="curve" smooth="yes"/>
      <point x="494" y="-16"/>
      <point x="590" y="104"/>
      <point x="590" y="224" type="curve" smooth="yes"/>
      <point x="590" y="348"/>
      <point x="496" y="435"/>
      <point x="320" y="435" type="curve" smooth="yes"/>
      <point x="258" y="435" type="line"/>
      <point x="371" y="371" type="line"/>
      <point x="552" y="555" type="line"/>
      <point x="552" y="700" type="line"/>
      <point x="30" y="700" type="line"/>
      <point x="30" y="522" type="line"/>
      <point x="379" y="522" type="line"/>
      <point x="358" y="601" type="line"/>
      <point x="177" y="417" type="line"/>
      <point x="177" y="272" type="line"/>
      <point x="270" y="272" type="line" smooth="yes"/>
      <point x="330" y="272"/>
      <point x="353" y="254"/>
      <point x="353" y="224" type="curve" smooth="yes"/>
      <point x="353" y="188"/>
      <point x="315" y="170"/>
      <point x="262" y="170" type="curve" smooth="yes"/>
      <point x="203" y="170"/>
      <point x="134" y="186"/>
      <point x="74" y="221" type="curve"/>
      <point x="-6" y="47" type="line"/>
      <point x="69" y="5"/>
      <point x="174" y="-16"/>
    </contour>
  </outline>
</glyph>
<glyph name="four" format="2">
  <advance width="712"/>
  <unicode hex="0034"/>
  <guideline x="375" y="228" angle="90"/>
  <outline>
    <contour>
      <point x="23" y="120" type="line"/>
      <point x="708" y="120" type="line"/>
      <point x="708" y="303" type="line"/>
      <point x="166" y="303" type="line"/>
      <point x="276" y="270" type="line"/>
      <point x="562" y="700" type="line"/>
      <point x="320" y="700" type="line"/>
      <point x="23" y="270" type="line"/>
    </contour>
    <contour>
      <point x="386" y="0" type="line"/>
      <point x="615" y="0" type="line"/>
      <point x="615" y="410" type="line"/>
      <point x="393" y="410" type="line"/>
      <point x="393" y="303" type="line"/>
      <point x="386" y="120" type="line"/>
    </contour>
  </outline>
</glyph>
<glyph name="at" format="2">
  <advance width="1037"/>
  <unicode hex="0040"/>
  <outline>
    <contour>
      <point x="523" y="-210" type="curve" smooth="yes"/>
      <point x="612" y="-210"/>
      <point x="707" y="-191"/>
      <point x="767" y="-162" type="curve"/>
      <point x="725" y="-39" type="line"/>
      <point x="657" y="-70"/>
      <point x="589" y="-83"/>
      <point x="523" y="-83" type="curve" smooth="yes"/>
      <point x="319" y="-83"/>
      <point x="184" y="57"/>
      <point x="184" y="253" type="curve" smooth="yes"/>
      <point x="184" y="443"/>
      <point x="322" y="587"/>
      <point x="527" y="587" type="curve" smooth="yes"/>
      <point x="733" y="587"/>
      <point x="868" y="459"/>
      <point x="868" y="278" type="curve" smooth="yes"/>
      <point x="868" y="166"/>
      <point x="845" y="138"/>
      <point x="817" y="138" type="curve" smooth="yes"/>
      <point x="795" y="138"/>
      <point x="778" y="151"/>
      <point x="778" y="193" type="curve" smooth="yes"/>
      <point x="778" y="479" type="line"/>
      <point x="586" y="479" type="line"/>
      <point x="586" y="424" type="line"/>
      <point x="595" y="245" type="line"/>
      <point x="595" y="198" type="line"/>
      <point x="595" y="177" type="line" smooth="yes"/>
      <point x="595" y="54"/>
      <point x="663" y="-9"/>
      <point x="773" y="-9" type="curve" smooth="yes"/>
      <point x="901" y="-9"/>
      <point x="1008" y="90"/>
      <point x="1008" y="281" type="curve" smooth="yes"/>
      <point x="1008" y="521"/>
      <point x="815" y="714"/>
      <point x="527" y="714" type="curve" smooth="yes"/>
      <point x="222" y="714"/>
      <point x="29" y="511"/>
      <point x="29" y="253" type="curve" smooth="yes"/>
      <point x="29" y="-9"/>
      <point x="222" y="-210"/>
    </contour>
    <contour>
      <point x="463" y="-9" type="curve" smooth="yes"/>
      <point x="598" y="-9"/>
      <point x="645" y="91"/>
      <point x="645" y="240" type="curve" smooth="yes"/>
      <point x="645" y="389"/>
      <point x="590" y="488"/>
      <point x="463" y="488" type="curve" smooth="yes"/>
      <point x="352" y="488"/>
      <point x="251" y="394"/>
      <point x="251" y="240" type="curve" smooth="yes"/>
      <point x="251" y="86"/>
      <point x="355" y="-9"/>
    </contour>
    <contour>
      <point x="518" y="148" type="curve" smooth="yes"/>
      <point x="477" y="148"/>
      <point x="447" y="179"/>
      <point x="447" y="240" type="curve" smooth="yes"/>
      <point x="447" y="300"/>
      <point x="477" y="331"/>
      <point x="518" y="331" type="curve" smooth="yes"/>
      <point x="559" y="331"/>
      <point x="590" y="300"/>
      <point x="590" y="240" type="curve" smooth="yes"/>
      <point x="590" y="179"/>
      <point x="559" y="148"/>
    </contour>
  </outline>
</glyph>
<glyph name="H" format="2">
  <advance width="804"/>
  <unicode hex="0048"/>
  <anchor x="402" y="0" name="bottom"/>
  <anchor x="402" y="576" name="center"/>
  <anchor x="402" y="700" name="top"/>
  <outline>
    <contour>
      <point x="511" y="700" type="line"/>
      <point x="511" y="0" type="line"/>
      <point x="747" y="0" type="line"/>
      <point x="747" y="700" type="line"/>
    </contour>
    <contour>
      <point x="293" y="0" type="line"/>
      <point x="293" y="700" type="line"/>
      <point x="57" y="700" type="line"/>
      <point x="57" y="0" type="line"/>
    </contour>
    <contour>
      <point x="527" y="258" type="line"/>
      <point x="527" y="452" type="line"/>
      <point x="277" y="452" type="line"/>
      <point x="277" y="258" type="line"/>
    </contour>
  </outline>
</glyph>
<glyph name="Z" format="2">
  <advance width="687"/>
  <unicode hex="005A"/>
  <anchor x="354" y="0" name="bottom"/>
  <anchor x="354" y="700" name="top"/>
  <outline>
    <contour>
      <point x="32" y="0" type="line"/>
      <point x="675" y="0" type="line"/>
      <point x="675" y="183" type="line"/>
      <point x="240" y="183" type="line"/>
      <point x="269" y="101" type="line"/>
      <point x="659" y="555" type="line"/>
      <point x="659" y="700" type="line"/>
      <point x="42" y="700" type="line"/>
      <point x="42" y="517" type="line"/>
      <point x="451" y="517" type="line"/>
      <point x="422" y="599" type="line"/>
      <point x="32" y="145" type="line"/>
    </contour>
  </outline>
</glyph>
<glyph name="n" format="2">
  <advance width="702"/>
  <unicode hex="006E"/>
  <anchor x="355" y="0" name="bottom"/>
  <anchor x="355" y="547" name="top"/>
  <outline>
    <contour>
      <point x="430" y="557" type="curve" smooth="yes"/>
      <point x="341" y="557"/>
      <point x="264" y="516"/>
      <point x="222" y="433" type="curve"/>
      <point x="265" y="387" type="line"/>
      <point x="265" y="547" type="line"/>
      <point x="50" y="547" type="line"/>
      <point x="50" y="0" type="line"/>
      <point x="276" y="0" type="line"/>
      <point x="276" y="257" type="line" smooth="yes"/>
      <point x="276" y="338"/>
      <point x="315" y="367"/>
      <point x="361" y="367" type="curve" smooth="yes"/>
      <point x="402" y="367"/>
      <point x="428" y="341"/>
      <point x="428" y="273" type="curve" smooth="yes"/>
      <point x="428" y="0" type="line"/>
      <point x="654" y="0" type="line"/>
      <point x="654" y="312" type="line" smooth="yes"/>
      <point x="654" y="484"/>
      <point x="556" y="557"/>
    </contour>
  </outline>
</glyph>
<glyph name="bar" format="2">
  <advance width="320"/>
  <unicode hex="007C"/>
  <outline>
    <contour>
      <point x="57" y="-194" type="line"/>
      <point x="263" y="-194" type="line"/>
      <point x="263" y="742" type="line"/>
      <point x="57" y="742" type="line"/>
    </contour>
  </outline>
</glyph>
<glyph name="multiply" format="2">
  <advance width="620"/>
  <unicode hex="00D7"/>
  <outline>
    <contour>
      <point x="70" y="230" type="line"/>
      <point x="190" y="110" type="line"/>
      <point x="550" y="470" type="line"/>
      <point x="430" y="590" type="line"/>
    </contour>
    <contour>
      <point x="70" y="470" type="line"/>
      <point x="430" y="110" type="line"/>
      <point x="550" y="230" type="line"/>
      <point x="190" y="590" type="line"/>
    </contour>
  </outline>
</glyph>
<glyph name="ae" format="2">
  <advance width="1003"/>
  <unicode hex="00E6"/>
  <guideline x="711" y="219" angle="0"/>
  <guideline x="711" y="328" angle="0"/>
  <anchor x="475" y="0" name="bottom"/>
  <anchor x="478" y="547" name="top"/>
  <outline>
    <contour>
      <point x="270" y="-10" type="curve" smooth="yes"/>
      <point x="379" y="-10"/>
      <point x="469" y="25"/>
      <point x="515" y="155" type="curve"/>
      <point x="412" y="155" type="line"/>
      <point x="469" y="35"/>
      <point x="582" y="-10"/>
      <point x="704" y="-10" type="curve" smooth="yes"/>
      <point x="804" y="-10"/>
      <point x="885" y="20"/>
      <point x="940" y="78" type="curve"/>
      <point x="822" y="197" type="line"/>
      <point x="784" y="170"/>
      <point x="751" y="157"/>
      <point x="707" y="157" type="curve" smooth="yes"/>
      <point x="632" y="157"/>
      <point x="591" y="196"/>
      <point x="591" y="267" type="curve" smooth="yes"/>
      <point x="591" y="301" type="line" smooth="yes"/>
      <point x="591" y="364"/>
      <point x="628" y="403"/>
      <point x="681" y="403" type="curve" smooth="yes"/>
      <point x="733" y="403"/>
      <point x="768" y="364"/>
      <point x="768" y="301" type="curve"/>
      <point x="810" y="328" type="line"/>
      <point x="576" y="328" type="line"/>
      <point x="576" y="219" type="line"/>
      <point x="978" y="219" type="line"/>
      <point x="980" y="235"/>
      <point x="982" y="255"/>
      <point x="982" y="276" type="curve" smooth="yes"/>
      <point x="982" y="458"/>
      <point x="839" y="557"/>
      <point x="685" y="557" type="curve" smooth="yes"/>
      <point x="587" y="557"/>
      <point x="498" y="517"/>
      <point x="444" y="451" type="curve"/>
      <point x="532" y="451" type="line"/>
      <point x="486" y="524"/>
      <point x="400" y="557"/>
      <point x="294" y="557" type="curve" smooth="yes"/>
      <point x="207" y="557"/>
      <point x="113" y="535"/>
      <point x="49" y="495" type="curve"/>
      <point x="121" y="346" type="line"/>
      <point x="157" y="373"/>
      <point x="210" y="389"/>
      <point x="262" y="389" type="curve" smooth="yes"/>
      <point x="334" y="389"/>
      <point x="365" y="358"/>
      <point x="365" y="307" type="curve" smooth="yes"/>
      <point x="365" y="200" type="line" smooth="yes"/>
      <point x="365" y="154"/>
      <point x="340" y="126"/>
      <point x="296" y="126" type="curve" smooth="yes"/>
      <point x="259" y="126"/>
      <point x="240" y="145"/>
      <point x="240" y="173" type="curve" smooth="yes"/>
      <point x="240" y="201"/>
      <point x="260" y="219"/>
      <point x="309" y="219" type="curve" smooth="yes"/>
      <point x="381" y="219" type="line"/>
      <point x="381" y="328" type="line"/>
      <point x="273" y="328" type="line" smooth="yes"/>
      <point x="103" y="328"/>
      <point x="23" y="267"/>
      <point x="23" y="168" type="curve" smooth="yes"/>
      <point x="23" y="61"/>
      <point x="115" y="-10"/>
    </contour>
  </outline>
</glyph>
<glyph name="kgreenlandic" format="2">
  <advance width="690"/>
  <unicode hex="0138"/>
  <anchor x="323" y="0" name="bottom"/>
  <anchor x="323" y="547" name="top"/>
  <outline>
    <contour>
      <point x="239" y="90" type="line"/>
      <point x="337" y="194" type="line"/>
      <point x="450" y="285" type="line"/>
      <point x="700" y="547" type="line"/>
      <point x="433" y="547" type="line"/>
      <point x="244" y="356" type="line"/>
    </contour>
    <contour>
      <point x="50" y="0" type="line"/>
      <point x="276" y="0" type="line"/>
      <point x="276" y="547" type="line"/>
      <point x="50" y="547" type="line"/>
    </contour>
    <contour>
      <point x="445" y="0" type="line"/>
      <point x="718" y="0" type="line"/>
      <point x="434" y="361" type="line"/>
      <point x="295" y="190" type="line"/>
    </contour>
  </outline>
</glyph>
<glyph name="ohorn" format="2">
  <advance width="678"/>
  <unicode hex="01A1"/>
  <anchor x="339" y="0" name="bottom"/>
  <anchor x="339" y="547" name="top"/>
  <outline>
    <contour>
      <point x="339" y="-10" type="curve" smooth="yes"/>
      <point x="524" y="-10"/>
      <point x="657" y="108"/>
      <point x="657" y="274" type="curve" smooth="yes"/>
      <point x="657" y="393"/>
      <point x="590" y="486"/>
      <point x="480" y="530" type="curve"/>
      <point x="329" y="430" type="line"/>
      <point x="361" y="423"/>
      <point x="401" y="418"/>
      <point x="442" y="418" type="curve" smooth="yes"/>
      <point x="564" y="418"/>
      <point x="654" y="490"/>
      <point x="654" y="599" type="curve" smooth="yes"/>
      <point x="654" y="644"/>
      <point x="638" y="681"/>
      <point x="615" y="710" type="curve"/>
      <point x="487" y="665" type="line"/>
      <point x="499" y="651"/>
      <point x="509" y="630"/>
      <point x="509" y="608" type="curve" smooth="yes"/>
      <point x="509" y="571"/>
      <point x="492" y="547"/>
      <point x="459" y="547" type="curve" smooth="yes"/>
      <point x="431" y="547"/>
      <point x="392" y="557"/>
      <point x="342" y="557" type="curve" smooth="yes"/>
      <point x="153" y="557"/>
      <point x="21" y="440"/>
      <point x="21" y="274" type="curve" smooth="yes"/>
      <point x="21" y="108"/>
      <point x="153" y="-10"/>
    </contour>
    <contour>
      <point x="339" y="166" type="curve" smooth="yes"/>
      <point x="289" y="166"/>
      <point x="250" y="203"/>
      <point x="250" y="274" type="curve" smooth="yes"/>
      <point x="250" y="345"/>
      <point x="289" y="381"/>
      <point x="339" y="381" type="curve" smooth="yes"/>
      <point x="389" y="381"/>
      <point x="428" y="345"/>
      <point x="428" y="274" type="curve" smooth="yes"/>
      <point x="428" y="203"/>
      <point x="389" y="166"/>
    </contour>
  </outline>
</glyph>
<glyph name="brevecomb" format="2">
  <unicode hex="0306"/>
  <anchor x="300" y="547" name="_top"/>
  <anchor x="300" y="750" name="top"/>
  <outline>
    <contour>
      <point x="300" y="597" type="curve" smooth="yes"/>
      <point x="420" y="597"/>
      <point x="504" y="662"/>
      <point x="509" y="767" type="curve"/>
      <point x="374" y="767" type="line"/>
      <point x="371" y="730"/>
      <point x="341" y="706"/>
      <point x="300" y="706" type="curve" smooth="yes"/>
      <point x="259" y="706"/>
      <point x="229" y="730"/>
      <point x="226" y="767" type="curve"/>
      <point x="91" y="767" type="line"/>
      <point x="96" y="662"/>
      <point x="180" y="597"/>
    </contour>
  </outline>
</glyph>
<glyph name="hookabovecomb" format="2">
  <unicode hex="0309"/>
  <anchor x="300" y="547" name="_top"/>
  <anchor x="300" y="830" name="top"/>
  <outline>
    <contour>
      <point x="343" y="597" type="line"/>
      <point x="409" y="627"/>
      <point x="446" y="670"/>
      <point x="446" y="735" type="curve" smooth="yes"/>
      <point x="446" y="808"/>
      <point x="389" y="858"/>
      <point x="305" y="858" type="curve" smooth="yes"/>
      <point x="257" y="858"/>
      <point x="211" y="845"/>
      <point x="176" y="818" type="curve"/>
      <point x="222" y="734" type="line"/>
      <point x="242" y="748"/>
      <point x="260" y="754"/>
      <point x="279" y="754" type="curve" smooth="yes"/>
      <point x="304" y="754"/>
      <point x="321" y="740"/>
      <point x="321" y="716" type="curve" smooth="yes"/>
      <point x="321" y="698"/>
      <point x="313" y="680"/>
      <point x="275" y="662" type="curve"/>
    </contour>
  </outline>
</glyph>
<glyph name="hungarumlautcomb" format="2">
  <unicode hex="030B"/>
  <anchor x="300" y="547" name="_top"/>
  <anchor x="300" y="760" name="top"/>
  <outline>
    <contour>
      <point x="342" y="607" type="line"/>
      <point x="492" y="607" type="line"/>
      <point x="589" y="767" type="line"/>
      <point x="394" y="767" type="line"/>
    </contour>
    <contour>
      <point x="108" y="607" type="line"/>
      <point x="258" y="607" type="line"/>
      <point x="355" y="767" type="line"/>
      <point x="160" y="767" type="line"/>
    </contour>
  </outline>
</glyph>
<glyph name="breveinvertedcomb" format="2">
  <unicode hex="0311"/>
  <guideline x="195" y="671" angle="90"/>
  <anchor x="300" y="547" name="_top"/>
  <anchor x="300" y="750" name="top"/>
  <outline>
    <contour>
      <point x="91" y="607" type="curve"/>
      <point x="226" y="607" type="line"/>
      <point x="229" y="644"/>
      <point x="259" y="668"/>
      <point x="300" y="668" type="curve" smooth="yes"/>
      <point x="341" y="668"/>
      <point x="371" y="644"/>
      <point x="374" y="607" type="curve"/>
      <point x="509" y="607" type="line"/>
      <point x="504" y="712"/>
      <point x="420" y="777"/>
      <point x="300" y="777" type="curve" smooth="yes"/>
      <point x="180" y="777"/>
      <point x="96" y="712"/>
    </contour>
  </outline>
</glyph>
<glyph name="dieresisbelowcomb" format="2">
  <unicode hex="0324"/>
  <anchor x="300" y="0" name="_bottom"/>
  <anchor x="300" y="-181" name="bottom"/>
  <outline>
    <contour>
      <point x="406" y="-217" type="curve" smooth="yes"/>
      <point x="454" y="-217"/>
      <point x="491" y="-184"/>
      <point x="491" y="-134" type="curve" smooth="yes"/>
      <point x="491" y="-84"/>
      <point x="454" y="-50"/>
      <point x="406" y="-50" type="curve" smooth="yes"/>
      <point x="358" y="-50"/>
      <point x="321" y="-84"/>
      <point x="321" y="-134" type="curve" smooth="yes"/>
      <point x="321" y="-184"/>
      <point x="358" y="-217"/>
    </contour>
    <contour>
      <point x="194" y="-217" type="curve" smooth="yes"/>
      <point x="242" y="-217"/>
      <point x="279" y="-184"/>
      <point x="279" y="-134" type="curve" smooth="yes"/>
      <point x="279" y="-84"/>
      <point x="242" y="-50"/>
      <point x="194" y="-50" type="curve" smooth="yes"/>
      <point x="146" y="-50"/>
      <point x="109" y="-84"/>
      <point x="109" y="-134" type="curve" smooth="yes"/>
      <point x="109" y="-184"/>
      <point x="146" y="-217"/>
    </contour>
  </outline>
</glyph>
<glyph name="ogonekcomb" format="2">
  <unicode hex="0328"/>
  <anchor x="300" y="0" name="_ogonek"/>
  <outline>
    <contour>
      <point x="212" y="-240" type="curve" smooth="yes"/>
      <point x="255" y="-240"/>
      <point x="301" y="-230"/>
      <point x="325" y="-217" type="curve"/>
      <point x="298" y="-124" type="line"/>
      <point x="283" y="-131"/>
      <point x="261" y="-138"/>
      <point x="239" y="-138" type="curve" smooth="yes"/>
      <point x="202" y="-138"/>
      <point x="186" y="-120"/>
      <point x="186" y="-97" type="curve" smooth="yes"/>
      <point x="186" y="-66"/>
      <point x="213" y="-38"/>
      <point x="300" y="0" type="curve"/>
      <point x="221" y="49" type="line"/>
      <point x="115" y="16"/>
      <point x="54" y="-43"/>
      <point x="54" y="-117" type="curve" smooth="yes"/>
      <point x="54" y="-192"/>
      <point x="112" y="-240"/>
    </contour>
  </outline>
</glyph>
<glyph name="slashlongcomb" format="2">
  <unicode hex="0338"/>
  <anchor x="327" y="274" name="_center"/>
  <outline>
    <contour>
      <point x="59" y="-70" type="line"/>
      <point x="154" y="-70" type="line"/>
      <point x="595" y="610" type="line"/>
      <point x="500" y="610" type="line"/>
    </contour>
  </outline>
</glyph>
<glyph name="Ka-cy" format="2">
  <advance width="765"/>
  <unicode hex="041A"/>
  <anchor x="492" y="0" name="bottomleft"/>
  <anchor x="759" y="0" name="bottomright"/>
  <anchor x="394" y="700" name="top"/>
  <outline>
    <contour>
      <point x="492" y="0" type="line"/>
      <point x="758" y="0" type="line"/>
      <point x="506" y="438" type="line"/>
      <point x="318" y="328" type="line"/>
    </contour>
    <contour>
      <point x="56" y="0" type="line"/>
      <point x="292" y="0" type="line"/>
      <point x="292" y="700" type="line"/>
      <point x="56" y="700" type="line"/>
    </contour>
    <contour>
      <point x="224" y="253" type="line"/>
      <point x="489" y="253" type="line"/>
      <point x="489" y="439" type="line"/>
      <point x="224" y="439" type="line"/>
    </contour>
    <contour>
      <point x="529" y="325" type="line"/>
      <point x="759" y="700" type="line"/>
      <point x="513" y="700" type="line"/>
      <point x="312" y="347" type="line"/>
    </contour>
  </outline>
</glyph>
<glyph name="pe-cy" format="2">
  <advance width="693"/>
  <unicode hex="043F"/>
  <anchor x="415" y="0" name="bottomleft"/>
  <outline>
    <contour>
      <point x="53" y="0" type="line"/>
      <point x="278" y="0" type="line"/>
      <point x="278" y="418" type="line"/>
      <point x="229" y="371" type="line"/>
      <point x="464" y="371" type="line"/>
      <point x="415" y="418" type="line"/>
      <point x="415" y="0" type="line"/>
      <point x="640" y="0" type="line"/>
      <point x="640" y="547" type="line"/>
      <point x="53" y="547" type="line"/>
    </contour>
  </outline>
</glyph>
<glyph name="hardsign-cy" format="2">
  <advance width="730"/>
  <unicode hex="044A"/>
  <guideline x="544" y="440" angle="0"/>
  <outline>
    <contour>
      <point x="490" y="382" type="curve" smooth="yes"/>
      <point x="384" y="382" type="line"/>
      <point x="384" y="547" type="line"/>
      <point x="12" y="547" type="line"/>
      <point x="12" y="371" type="line"/>
      <point x="159" y="371" type="line"/>
      <point x="159" y="0" type="line"/>
      <point x="462" y="0" type="line" smooth="yes"/>
      <point x="621" y="0"/>
      <point x="718" y="74"/>
      <point x="718" y="199" type="curve" smooth="yes"/>
      <point x="718" y="314"/>
      <point x="637" y="382"/>
    </contour>
    <contour>
      <point x="446" y="152" type="curve" smooth="yes"/>
      <point x="384" y="152" type="line"/>
      <point x="384" y="250" type="line"/>
      <point x="446" y="250" type="line" smooth="yes"/>
      <point x="474" y="250"/>
      <point x="488" y="233"/>
      <point x="488" y="203" type="curve" smooth="yes"/>
      <point x="488" y="172"/>
      <point x="474" y="152"/>
    </contour>
  </outline>
</glyph>
<glyph name="dje-cy" format="2">
  <advance width="698"/>
  <unicode hex="0452"/>
  <outline>
    <contour>
      <point x="418" y="-204" type="curve" smooth="yes"/>
      <point x="569" y="-204"/>
      <point x="657" y="-113"/>
      <point x="657" y="28" type="curve" smooth="yes"/>
      <point x="657" y="312" type="line" smooth="yes"/>
      <point x="657" y="484"/>
      <point x="559" y="557"/>
      <point x="433" y="557" type="curve" smooth="yes"/>
      <point x="344" y="557"/>
      <point x="267" y="516"/>
      <point x="225" y="433" type="curve"/>
      <point x="268" y="387" type="line"/>
      <point x="268" y="742" type="line"/>
      <point x="53" y="742" type="line"/>
      <point x="53" y="0" type="line"/>
      <point x="279" y="0" type="line"/>
      <point x="279" y="257" type="line" smooth="yes"/>
      <point x="279" y="338"/>
      <point x="318" y="367"/>
      <point x="364" y="367" type="curve" smooth="yes"/>
      <point x="405" y="367"/>
      <point x="431" y="341"/>
      <point x="431" y="273" type="curve" smooth="yes"/>
      <point x="431" y="30" type="line" smooth="yes"/>
      <point x="431" y="-14"/>
      <point x="411" y="-33"/>
      <point x="384" y="-33" type="curve" smooth="yes"/>
      <point x="366" y="-33"/>
      <point x="348" y="-28"/>
      <point x="333" y="-20" type="curve"/>
      <point x="279" y="-177" type="line"/>
      <point x="314" y="-195"/>
      <point x="365" y="-204"/>
    </contour>
    <contour>
      <point x="-37" y="583" type="line"/>
      <point x="483" y="583" type="line"/>
      <point x="483" y="693" type="line"/>
      <point x="-37" y="693" type="line"/>
    </contour>
  </outline>
</glyph>
<glyph name="Yat-cy" format="2">
  <advance width="849"/>
  <unicode hex="0462"/>
  <anchor x="306" y="580" name="center"/>
  <outline>
    <contour>
      <point x="178" y="0" type="line"/>
      <point x="535" y="0" type="line" smooth="yes"/>
      <point x="720" y="0"/>
      <point x="830" y="92"/>
      <point x="830" y="246" type="curve" smooth="yes"/>
      <point x="830" y="394"/>
      <point x="735" y="475"/>
      <point x="565" y="475" type="curve" smooth="yes"/>
      <point x="410" y="475" type="line"/>
      <point x="410" y="742" type="line"/>
      <point x="178" y="742" type="line"/>
    </contour>
    <contour>
      <point x="410" y="165" type="line"/>
      <point x="410" y="310" type="line"/>
      <point x="519" y="310" type="line" smooth="yes"/>
      <point x="568" y="310"/>
      <point x="593" y="287"/>
      <point x="593" y="240" type="curve" smooth="yes"/>
      <point x="593" y="192"/>
      <point x="566" y="165"/>
      <point x="519" y="165" type="curve" smooth="yes"/>
    </contour>
    <contour>
      <point x="13" y="536" type="line"/>
      <point x="630" y="536" type="line"/>
      <point x="630" y="666" type="line"/>
      <point x="13" y="666" type="line"/>
    </contour>
  </outline>
</glyph>
<glyph name="yat-cy" format="2">
  <advance width="687"/>
  <unicode hex="0463"/>
  <outline>
    <contour>
      <point x="1" y="468" type="line"/>
      <point x="511" y="468" type="line"/>
      <point x="511" y="598" type="line"/>
      <point x="1" y="598" type="line"/>
    </contour>
    <contour>
      <point x="447" y="382" type="curve" smooth="yes"/>
      <point x="326" y="382" type="line"/>
      <point x="326" y="742" type="line"/>
      <point x="101" y="742" type="line"/>
      <point x="101" y="0" type="line"/>
      <point x="419" y="0" type="line" smooth="yes"/>
      <point x="578" y="0"/>
      <point x="675" y="74"/>
      <point x="675" y="199" type="curve" smooth="yes"/>
      <point x="675" y="314"/>
      <point x="594" y="382"/>
    </contour>
    <contour>
      <point x="396" y="152" type="curve" smooth="yes"/>
      <point x="326" y="152" type="line"/>
      <point x="326" y="250" type="line"/>
      <point x="396" y="250" type="line" smooth="yes"/>
      <point x="426" y="250"/>
      <point x="445" y="236"/>
      <point x="445" y="202" type="curve" smooth="yes"/>
      <point x="445" y="167"/>
      <point x="426" y="152"/>
    </contour>
  </outline>
</glyph>
<glyph name="Ghestroke-cy" format="2">
  <advance width="666"/>
  <unicode hex="0492"/>
  <outline>
    <contour>
      <point x="14" y="253" type="line"/>
      <point x="595" y="253" type="line"/>
      <point x="595" y="383" type="line"/>
      <point x="14" y="383" type="line"/>
    </contour>
    <component base="Ge-cy" xOffset="52"/>
  </outline>
</glyph>
<glyph name="Haabkhasian-cy" format="2">
  <advance width="980"/>
  <unicode hex="04A8"/>
  <outline>
    <contour>
      <point x="448" y="-17" type="curve" smooth="yes"/>
      <point x="687" y="-17"/>
      <point x="940" y="149"/>
      <point x="940" y="422" type="curve" smooth="yes"/>
      <point x="940" y="607"/>
      <point x="831" y="716"/>
      <point x="657" y="716" type="curve" smooth="yes"/>
      <point x="473" y="716"/>
      <point x="357" y="592"/>
      <point x="357" y="401" type="curve" smooth="yes"/>
      <point x="357" y="97"/>
      <point x="638" y="-79"/>
      <point x="948" y="3" type="curve"/>
      <point x="933" y="153" type="line"/>
      <point x="735" y="92"/>
      <point x="557" y="192"/>
      <point x="557" y="408" type="curve" smooth="yes"/>
      <point x="557" y="498"/>
      <point x="590" y="551"/>
      <point x="652" y="551" type="curve" smooth="yes"/>
      <point x="710" y="551"/>
      <point x="740" y="503"/>
      <point x="740" y="417" type="curve" smooth="yes"/>
      <point x="740" y="228"/>
      <point x="618" y="137"/>
      <point x="486" y="137" type="curve" smooth="yes"/>
      <point x="372" y="137"/>
      <point x="263" y="216"/>
      <point x="263" y="377" type="curve" smooth="yes"/>
      <point x="263" y="462"/>
      <point x="296" y="558"/>
      <point x="356" y="630" type="curve"/>
      <point x="163" y="716" type="line"/>
      <point x="72" y="632"/>
      <point x="27" y="510"/>
      <point x="27" y="386" type="curve" smooth="yes"/>
      <point x="27" y="114"/>
      <point x="232" y="-17"/>
    </contour>
  </outline>
</glyph>
<glyph name="ustrait-cy" format="2">
  <advance width="668"/>
  <unicode hex="04AF"/>
  <anchor x="332" y="5" name="center"/>
  <outline>
    <contour>
      <point x="260" y="-100" type="line"/>
      <point x="403" y="-100" type="line"/>
      <point x="671" y="547" type="line"/>
      <point x="457" y="547" type="line"/>
      <point x="279" y="103" type="line"/>
      <point x="396" y="103" type="line"/>
      <point x="229" y="547" type="line"/>
      <point x="-3" y="547" type="line"/>
    </contour>
    <contour>
      <point x="445" y="100" type="line"/>
      <point x="219" y="100" type="line"/>
      <point x="219" y="-194" type="line"/>
      <point x="445" y="-194" type="line"/>
    </contour>
  </outline>
</glyph>
<glyph name="tetse-cy" format="2">
  <advance width="830"/>
  <unicode hex="04B5"/>
  <outline>
    <contour>
      <point x="179" y="0" type="line"/>
      <point x="751" y="0" type="line"/>
      <point x="751" y="547" type="line"/>
      <point x="526" y="547" type="line"/>
      <point x="526" y="177" type="line"/>
      <point x="404" y="177" type="line"/>
      <point x="404" y="547" type="line"/>
      <point x="179" y="547" type="line"/>
    </contour>
    <contour>
      <point x="609" y="-101" type="line"/>
      <point x="818" y="-101" type="line"/>
      <point x="818" y="177" type="line"/>
      <point x="527" y="177" type="line"/>
      <point x="527" y="0" type="line"/>
      <point x="657" y="0" type="line"/>
      <point x="609" y="48" type="line"/>
    </contour>
    <contour>
      <point x="483" y="547" type="line"/>
      <point x="12" y="547" type="line"/>
      <point x="12" y="371" type="line"/>
      <point x="483" y="371" type="line"/>
    </contour>
  </outline>
</glyph>
<glyph name="Enhook-cy" format="2">
  <advance width="812"/>
  <unicode hex="04C7"/>
  <outline>
    <contour>
      <point x="366" y="-177" type="line"/>
      <point x="534" y="-249"/>
      <point x="750" y="-194"/>
      <point x="750" y="20" type="curve" smooth="yes"/>
      <point x="750" y="700" type="line"/>
      <point x="518" y="700" type="line"/>
      <point x="518" y="435" type="line"/>
      <point x="294" y="435" type="line"/>
      <point x="294" y="700" type="line"/>
      <point x="62" y="700" type="line"/>
      <point x="62" y="0" type="line"/>
      <point x="294" y="0" type="line"/>
      <point x="294" y="252" type="line"/>
      <point x="518" y="252" type="line"/>
      <point x="518" y="23" type="line" smooth="yes"/>
      <point x="518" y="-30"/>
      <point x="473" y="-45"/>
      <point x="420" y="-20" type="curve"/>
    </contour>
  </outline>
</glyph>
<glyph name="enhook-cy" format="2">
  <advance width="710"/>
  <unicode hex="04C8"/>
  <outline>
    <contour>
      <point x="419" y="-204" type="curve" smooth="yes"/>
      <point x="570" y="-204"/>
      <point x="657" y="-113"/>
      <point x="657" y="28" type="curve"/>
      <point x="657" y="547" type="line"/>
      <point x="432" y="547" type="line"/>
      <point x="432" y="355" type="line"/>
      <point x="278" y="355" type="line"/>
      <point x="278" y="547" type="line"/>
      <point x="53" y="547" type="line"/>
      <point x="53" y="0" type="line"/>
      <point x="278" y="0" type="line"/>
      <point x="278" y="178" type="line"/>
      <point x="432" y="178" type="line"/>
      <point x="432" y="30" type="line"/>
      <point x="432" y="-15"/>
      <point x="412" y="-34"/>
      <point x="385" y="-34" type="curve" smooth="yes"/>
      <point x="367" y="-34"/>
      <point x="349" y="-29"/>
      <point x="334" y="-21" type="curve"/>
      <point x="280" y="-177" type="line"/>
      <point x="315" y="-195"/>
      <point x="366" y="-204"/>
    </contour>
  </outline>
</glyph>
<glyph name="palochka-cy" format="2">
  <advance width="332"/>
  <unicode hex="04CF"/>
  <anchor x="166" y="0" name="bottom"/>
  <anchor x="166" y="370" name="center"/>
  <anchor x="419" y="370" name="dot"/>
  <anchor x="166" y="742" name="top"/>
  <anchor x="349" y="742" name="topright"/>
  <outline>
    <contour>
      <point x="53" y="0" type="line"/>
      <point x="279" y="0" type="line"/>
      <point x="279" y="742" type="line"/>
      <point x="53" y="742" type="line"/>
    </contour>
  </outline>
</glyph>
<glyph name="Schwa-cy" format="2">
  <advance width="817"/>
  <unicode hex="04D8"/>
  <anchor x="409" y="700" name="top"/>
  <outline>
    <contour>
      <point x="401" y="-16" type="curve" smooth="yes"/>
      <point x="595" y="-16"/>
      <point x="793" y="107"/>
      <point x="793" y="350" type="curve" smooth="yes"/>
      <point x="793" y="592"/>
      <point x="597" y="716"/>
      <point x="395" y="716" type="curve" smooth="yes"/>
      <point x="276" y="716"/>
      <point x="154" y="673"/>
      <point x="69" y="587" type="curve"/>
      <point x="239" y="451" type="line"/>
      <point x="283" y="502"/>
      <point x="339" y="526"/>
      <point x="392" y="526" type="curve" smooth="yes"/>
      <point x="478" y="526"/>
      <point x="555" y="463"/>
      <point x="555" y="348" type="curve" smooth="yes"/>
      <point x="555" y="232"/>
      <point x="478" y="172"/>
      <point x="402" y="172" type="curve" smooth="yes"/>
      <point x="327" y="172"/>
      <point x="254" y="231"/>
      <point x="259" y="350" type="curve"/>
      <point x="208" y="281" type="line"/>
      <point x="722" y="281" type="line"/>
      <point x="722" y="431" type="line"/>
      <point x="31" y="431" type="line"/>
      <point x="24" y="402"/>
      <point x="21" y="374"/>
      <point x="21" y="344" type="curve" smooth="yes"/>
      <point x="21" y="104"/>
      <point x="210" y="-16"/>
    </contour>
  </outline>
</glyph>
<glyph name="Obarred-cy" format="2">
  <advance width="836"/>
  <unicode hex="04E8"/>
  <anchor x="418" y="0" name="bottom"/>
  <anchor x="418" y="350" name="center"/>
  <anchor x="541" y="0" name="ogonek"/>
  <anchor x="418" y="700" name="top"/>
  <anchor x="28" y="700" name="topleft"/>
  <anchor x="584" y="700" name="topright"/>
  <outline>
    <contour>
      <point x="418" y="716" type="curve" smooth="yes"/>
      <point x="190" y="716"/>
      <point x="23" y="562"/>
      <point x="23" y="350" type="curve" smooth="yes"/>
      <point x="23" y="138"/>
      <point x="190" y="-16"/>
      <point x="418" y="-16" type="curve" smooth="yes"/>
      <point x="646" y="-16"/>
      <point x="813" y="138"/>
      <point x="813" y="350" type="curve" smooth="yes"/>
      <point x="813" y="562"/>
      <point x="646" y="716"/>
    </contour>
    <contour>
      <point x="418" y="525" type="curve" smooth="yes"/>
      <point x="485" y="525"/>
      <point x="543" y="485"/>
      <point x="565" y="417" type="curve"/>
      <point x="271" y="417" type="line"/>
      <point x="293" y="485"/>
      <point x="351" y="525"/>
    </contour>
    <contour>
      <point x="418" y="175" type="curve" smooth="yes"/>
      <point x="351" y="175"/>
      <point x="295" y="214"/>
      <point x="272" y="281" type="curve"/>
      <point x="564" y="281" type="line"/>
      <point x="541" y="214"/>
      <point x="485" y="175"/>
    </contour>
  </outline>
</glyph>
<glyph name="Hastroke-cy" format="2">
  <advance width="789"/>
  <unicode hex="04FE"/>
  <guideline x="389" y="742" angle="90"/>
  <outline>
    <contour>
      <point x="83" y="298" type="line"/>
      <point x="700" y="298" type="line"/>
      <point x="700" y="428" type="line"/>
      <point x="83" y="428" type="line"/>
    </contour>
    <contour>
      <point x="18" y="701" type="line"/>
      <point x="249" y="356" type="line"/>
      <point x="3" y="0" type="line"/>
      <point x="274" y="0" type="line"/>
      <point x="390" y="181" type="line"/>
      <point x="508" y="0" type="line"/>
      <point x="786" y="0" type="line"/>
      <point x="538" y="367" type="line"/>
      <point x="765" y="701" type="line"/>
      <point x="492" y="701" type="line"/>
      <point x="390" y="536" type="line"/>
      <point x="288" y="701" type="line"/>
    </contour>
  </outline>
</glyph>
<glyph name="dagger" format="2">
  <advance width="627"/>
  <unicode hex="2020"/>
  <outline>
    <contour>
      <point x="200" y="-194" type="line"/>
      <point x="426" y="-194" type="line"/>
      <point x="426" y="327" type="line"/>
      <point x="598" y="327" type="line"/>
      <point x="598" y="505" type="line"/>
      <point x="426" y="505" type="line"/>
      <point x="426" y="700" type="line"/>
      <point x="200" y="700" type="line"/>
      <point x="200" y="505" type="line"/>
      <point x="29" y="505" type="line"/>
      <point x="29" y="327" type="line"/>
      <point x="200" y="327" type="line"/>
    </contour>
  </outline>
</glyph>
<glyph name="liraTurkish" format="2">
  <advance width="798"/>
  <unicode hex="20BA"/>
  <guideline x="91" y="299" angle="0"/>
  <guideline x="71" y="444" angle="0"/>
  <outline>
    <contour>
      <point x="120" y="0" type="line"/>
      <point x="319" y="0" type="line" smooth="yes"/>
      <point x="616" y="0"/>
      <point x="769" y="142"/>
      <point x="768" y="359" type="curve"/>
      <point x="532" y="359" type="line"/>
      <point x="532" y="250"/>
      <point x="483" y="180"/>
      <point x="374" y="180" type="curve" smooth="yes"/>
      <point x="352" y="180" type="line"/>
      <point x="352" y="701" type="line"/>
      <point x="120" y="701" type="line"/>
    </contour>
    <contour>
      <point x="30" y="168" type="line"/>
      <point x="566" y="450" type="line"/>
      <point x="566" y="566" type="line"/>
      <point x="30" y="284" type="line"/>
    </contour>
    <contour>
      <point x="30" y="312" type="line"/>
      <point x="566" y="594" type="line"/>
      <point x="566" y="710" type="line"/>
      <point x="30" y="428" type="line"/>
    </contour>
  </outline>
</glyph>
<glyph name="literSign" format="2">
  <advance width="478"/>
  <unicode hex="2113"/>
  <outline>
    <contour>
      <point x="220" y="-7" type="curve" smooth="yes"/>
      <point x="299" y="-7"/>
      <point x="377" y="30"/>
      <point x="439" y="131" type="curve"/>
      <point x="378" y="207" type="line"/>
      <point x="351" y="174"/>
      <point x="314" y="133"/>
      <point x="268" y="133" type="curve" smooth="yes"/>
      <point x="233" y="133"/>
      <point x="210" y="155"/>
      <point x="220" y="220" type="curve"/>
      <point x="297" y="284"/>
      <point x="454" y="402"/>
      <point x="454" y="567" type="curve" smooth="yes"/>
      <point x="454" y="656"/>
      <point x="408" y="711"/>
      <point x="324" y="711" type="curve" smooth="yes"/>
      <point x="227" y="711"/>
      <point x="144" y="638"/>
      <point x="114" y="467" type="curve" smooth="yes"/>
      <point x="78" y="250" type="line"/>
      <point x="-7" y="193" type="line"/>
      <point x="22" y="107" type="line"/>
      <point x="65" y="131" type="line"/>
      <point x="78" y="44"/>
      <point x="127" y="-7"/>
    </contour>
    <contour>
      <point x="246" y="371" type="curve"/>
      <point x="265" y="487" type="line" smooth="yes"/>
      <point x="279" y="573"/>
      <point x="298" y="602"/>
      <point x="318" y="602" type="curve" smooth="yes"/>
      <point x="333" y="602"/>
      <point x="338" y="585"/>
      <point x="338" y="564" type="curve" smooth="yes"/>
      <point x="338" y="487"/>
      <point x="277" y="410"/>
    </contour>
  </outline>
</glyph>
<glyph name="estimated" format="2">
  <advance width="842"/>
  <unicode hex="212E"/>
  <outline>
    <contour>
      <point x="421" y="-3" type="curve" smooth="yes"/>
      <point x="546" y="-3"/>
      <point x="661" y="52"/>
      <point x="731" y="134" type="curve"/>
      <point x="674" y="134" type="line"/>
      <point x="614" y="64"/>
      <point x="523" y="18"/>
      <point x="422" y="18" type="curve" smooth="yes"/>
      <point x="328" y="18"/>
      <point x="236" y="53"/>
      <point x="181" y="122" type="curve" smooth="yes"/>
      <point x="177" y="128"/>
      <point x="172" y="135"/>
      <point x="172" y="145" type="curve" smooth="yes"/>
      <point x="172" y="337" type="line"/>
      <point x="172" y="340"/>
      <point x="174" y="341"/>
      <point x="178" y="341" type="curve" smooth="yes"/>
      <point x="813" y="341" type="line"/>
      <point x="813" y="349" type="line"/>
      <point x="813" y="545"/>
      <point x="638" y="703"/>
      <point x="421" y="703" type="curve" smooth="yes"/>
      <point x="205" y="703"/>
      <point x="29" y="545"/>
      <point x="29" y="349" type="curve" smooth="yes"/>
      <point x="29" y="155"/>
      <point x="205" y="-3"/>
    </contour>
    <contour>
      <point x="178" y="360" type="line"/>
      <point x="174" y="360"/>
      <point x="172" y="362"/>
      <point x="172" y="366" type="curve" smooth="yes"/>
      <point x="172" y="555" type="line"/>
      <point x="172" y="565"/>
      <point x="177" y="573"/>
      <point x="182" y="579" type="curve" smooth="yes"/>
      <point x="244" y="641"/>
      <point x="328" y="682"/>
      <point x="422" y="682" type="curve" smooth="yes"/>
      <point x="515" y="682"/>
      <point x="599" y="643"/>
      <point x="660" y="582" type="curve" smooth="yes"/>
      <point x="666" y="577"/>
      <point x="671" y="568"/>
      <point x="671" y="559" type="curve" smooth="yes"/>
      <point x="671" y="366" type="line"/>
      <point x="671" y="362"/>
      <point x="668" y="360"/>
      <point x="665" y="360" type="curve" smooth="yes"/>
    </contour>
  </outline>
</glyph>
<glyph name="leftBlackTriangle" format="2">
  <advance width="600"/>
  <unicode hex="25C0"/>
  <outline>
    <contour>
      <point x="484" y="52" type="line"/>
      <point x="484" y="478" type="line"/>
      <point x="58" y="265" type="line"/>
    </contour>
  </outline>
</glyph>
<glyph name="whiteDiamond" format="2">
  <advance width="600"/>
  <unicode hex="25C7"/>
  <outline>
    <contour>
      <point x="25" y="265" type="line"/>
      <point x="300" y="-9" type="line"/>
      <point x="574" y="265" type="line"/>
      <point x="300" y="540" type="line"/>
    </contour>
    <contour>
      <point x="184" y="265" type="line"/>
      <point x="300" y="381" type="line"/>
      <point x="415" y="265" type="line"/>
      <point x="300" y="149" type="line"/>
    </contour>
  </outline>
</glyph>
<glyph name="Eogonek.ss01" format="2">
  <advance width="695"/>
  <anchor x="375" y="0" name="bottom"/>
  <anchor x="375" y="700" name="top"/>
  <anchor x="-3" y="700" name="topleft"/>
  <outline>
    <contour>
      <point x="557" y="-240" type="curve" smooth="yes"/>
      <point x="600" y="-240"/>
      <point x="646" y="-230"/>
      <point x="670" y="-217" type="curve"/>
      <point x="643" y="-124" type="line"/>
      <point x="628" y="-131"/>
      <point x="606" y="-138"/>
      <point x="584" y="-138" type="curve" smooth="yes"/>
      <point x="547" y="-138"/>
      <point x="531" y="-120"/>
      <point x="531" y="-94" type="curve" smooth="yes"/>
      <point x="531" y="-56"/>
      <point x="577" y="-3"/>
      <point x="689" y="46" type="curve"/>
      <point x="620" y="217" type="line"/>
      <point x="558" y="184"/>
      <point x="471" y="164"/>
      <point x="402" y="164" type="curve" smooth="yes"/>
      <point x="302" y="164"/>
      <point x="264" y="186"/>
      <point x="264" y="218" type="curve" smooth="yes"/>
      <point x="264" y="247"/>
      <point x="288" y="266"/>
      <point x="342" y="266" type="curve" smooth="yes"/>
      <point x="563" y="266" type="line"/>
      <point x="563" y="440" type="line"/>
      <point x="358" y="440" type="line" smooth="yes"/>
      <point x="309" y="440"/>
      <point x="293" y="457"/>
      <point x="293" y="483" type="curve" smooth="yes"/>
      <point x="293" y="515"/>
      <point x="330" y="536"/>
      <point x="416" y="536" type="curve" smooth="yes"/>
      <point x="477" y="536"/>
      <point x="538" y="525"/>
      <point x="605" y="498" type="curve"/>
      <point x="669" y="670" type="line"/>
      <point x="599" y="698"/>
      <point x="504" y="716"/>
      <point x="407" y="716" type="curve" smooth="yes"/>
      <point x="164" y="716"/>
      <point x="55" y="612"/>
      <point x="55" y="498" type="curve" smooth="yes"/>
      <point x="55" y="409"/>
      <point x="123" y="333"/>
      <point x="265" y="333" type="curve"/>
      <point x="260" y="385" type="line"/>
      <point x="112" y="385"/>
      <point x="26" y="305"/>
      <point x="26" y="202" type="curve" smooth="yes"/>
      <point x="26" y="75"/>
      <point x="151" y="-16"/>
      <point x="393" y="-16" type="curve" smooth="yes"/>
      <point x="433" y="-16"/>
      <point x="474" y="-11"/>
      <point x="514" y="-6" type="curve"/>
      <point x="514" y="30" type="line"/>
      <point x="441" y="-4"/>
      <point x="399" y="-55"/>
      <point x="399" y="-117" type="curve" smooth="yes"/>
      <point x="399" y="-192"/>
      <point x="457" y="-240"/>
    </contour>
  </outline>
</glyph>
<glyph name="I.ss01" format="2">
  <advance width="516"/>
  <anchor x="258" y="0" name="bottom"/>
  <anchor x="376" y="0" name="ogonek"/>
  <anchor x="258" y="700" name="top"/>
  <anchor x="-20" y="700" name="topleft"/>
  <outline>
    <contour>
      <point x="140" y="20" type="line"/>
      <point x="376" y="20" type="line"/>
      <point x="376" y="681" type="line"/>
      <point x="140" y="681" type="line"/>
    </contour>
    <contour>
      <point x="35" y="0" type="line"/>
      <point x="481" y="0" type="line"/>
      <point x="481" y="178" type="line"/>
      <point x="35" y="178" type="line"/>
    </contour>
    <contour>
      <point x="35" y="522" type="line"/>
      <point x="481" y="522" type="line"/>
      <point x="481" y="700" type="line"/>
      <point x="35" y="700" type="line"/>
    </contour>
  </outline>
</glyph>
<glyph name="Q.ss01" format="2">
  <advance width="848"/>
  <outline>
    <contour>
      <point x="306" y="-135" type="line"/>
      <point x="542" y="-135" type="line"/>
      <point x="542" y="25" type="line"/>
      <point x="532" y="92" type="line"/>
      <point x="532" y="315" type="line"/>
      <point x="315" y="315" type="line"/>
      <point x="315" y="92" type="line"/>
      <point x="306" y="25" type="line"/>
    </contour>
    <contour>
      <point x="424" y="-16" type="curve" smooth="yes"/>
      <point x="652" y="-16"/>
      <point x="819" y="140"/>
      <point x="819" y="350" type="curve" smooth="yes"/>
      <point x="819" y="562"/>
      <point x="652" y="716"/>
      <point x="424" y="716" type="curve" smooth="yes"/>
      <point x="196" y="716"/>
      <point x="29" y="562"/>
      <point x="29" y="350" type="curve" smooth="yes"/>
      <point x="29" y="138"/>
      <point x="196" y="-16"/>
    </contour>
    <contour>
      <point x="424" y="175" type="curve" smooth="yes"/>
      <point x="323" y="175"/>
      <point x="267" y="237"/>
      <point x="267" y="350" type="curve" smooth="yes"/>
      <point x="267" y="459"/>
      <point x="337" y="525"/>
      <point x="424" y="525" type="curve" smooth="yes"/>
      <point x="511" y="525"/>
      <point x="581" y="459"/>
      <point x="581" y="350" type="curve" smooth="yes"/>
      <point x="581" y="237"/>
      <point x="525" y="175"/>
    </contour>
  </outline>
</glyph>
<glyph name="Uogonek.loclNAV.ss01" format="2">
  <advance width="790"/>
  <anchor x="390" y="700" name="top"/>
  <anchor x="628" y="700" name="topright"/>
  <outline>
    <contour>
      <point x="434" y="49" type="line"/>
      <point x="328" y="16"/>
      <point x="267" y="-43"/>
      <point x="267" y="-118" type="curve" smooth="yes"/>
      <point x="267" y="-192"/>
      <point x="326" y="-240"/>
      <point x="423" y="-240" type="curve" smooth="yes"/>
      <point x="468" y="-240"/>
      <point x="514" y="-230"/>
      <point x="538" y="-217" type="curve"/>
      <point x="511" y="-124" type="line"/>
      <point x="496" y="-131"/>
      <point x="474" y="-138"/>
      <point x="452" y="-138" type="curve" smooth="yes"/>
      <point x="415" y="-138"/>
      <point x="399" y="-119"/>
      <point x="399" y="-91" type="curve" smooth="yes"/>
      <point x="399" y="-58"/>
      <point x="420" y="-35"/>
      <point x="451" y="-2" type="curve" smooth="yes"/>
      <point x="484" y="33"/>
      <point x="521" y="73"/>
      <point x="540" y="137" type="curve"/>
      <point x="504" y="181" type="line"/>
      <point x="504" y="0" type="line"/>
      <point x="733" y="0" type="line"/>
      <point x="733" y="700" type="line"/>
      <point x="497" y="700" type="line"/>
      <point x="497" y="310" type="line" smooth="yes"/>
      <point x="497" y="217"/>
      <point x="448" y="175"/>
      <point x="389" y="175" type="curve" smooth="yes"/>
      <point x="328" y="175"/>
      <point x="287" y="214"/>
      <point x="287" y="302" type="curve" smooth="yes"/>
      <point x="287" y="700" type="line"/>
      <point x="51" y="700" type="line"/>
      <point x="51" y="295" type="line" smooth="yes"/>
      <point x="51" y="95"/>
      <point x="147" y="-16"/>
      <point x="310" y="-16" type="curve" smooth="yes"/>
      <point x="352" y="-16"/>
      <point x="391" y="-8"/>
      <point x="441" y="18" type="curve"/>
    </contour>
  </outline>
</glyph>
<glyph name="Z.ss01" format="2">
  <advance width="697"/>
  <anchor x="359" y="0" name="bottom"/>
  <anchor x="359" y="700" name="top"/>
  <outline>
    <contour>
      <point x="37" y="0" type="line"/>
      <point x="680" y="0" type="line"/>
      <point x="680" y="178" type="line"/>
      <point x="245" y="178" type="line"/>
      <point x="277" y="121" type="line"/>
      <point x="665" y="571" type="line"/>
      <point x="665" y="701" type="line"/>
      <point x="48" y="701" type="line"/>
      <point x="48" y="523" type="line"/>
      <point x="457" y="523" type="line"/>
      <point x="425" y="580" type="line"/>
      <point x="37" y="130" type="line"/>
    </contour>
    <contour>
      <point x="87" y="277" type="line"/>
      <point x="278" y="277" type="line"/>
      <point x="338" y="273" type="line"/>
      <point x="616" y="273" type="line"/>
      <point x="616" y="433" type="line"/>
      <point x="448" y="433" type="line"/>
      <point x="388" y="437" type="line"/>
      <point x="87" y="437" type="line"/>
    </contour>
  </outline>
</glyph>
<glyph name="ampersand.sc" format="2">
  <advance width="664"/>
  <outline>
    <contour>
      <point x="285" y="-15" type="curve" smooth="yes"/>
      <point x="466" y="-15"/>
      <point x="616" y="114"/>
      <point x="656" y="287" type="curve"/>
      <point x="492" y="335" type="line"/>
      <point x="458" y="217"/>
      <point x="377" y="140"/>
      <point x="299" y="140" type="curve" smooth="yes"/>
      <point x="250" y="140"/>
      <point x="230" y="162"/>
      <point x="230" y="184" type="curve" smooth="yes"/>
      <point x="230" y="214"/>
      <point x="255" y="236"/>
      <point x="318" y="255" type="curve" smooth="yes"/>
      <point x="448" y="294"/>
      <point x="512" y="355"/>
      <point x="512" y="439" type="curve" smooth="yes"/>
      <point x="512" y="533"/>
      <point x="428" y="593"/>
      <point x="305" y="593" type="curve" smooth="yes"/>
      <point x="171" y="593"/>
      <point x="84" y="526"/>
      <point x="84" y="429" type="curve" smooth="yes"/>
      <point x="84" y="379"/>
      <point x="111" y="330"/>
      <point x="166" y="286" type="curve" smooth="yes"/>
      <point x="533" y="-12" type="line"/>
      <point x="649" y="118" type="line"/>
      <point x="338" y="367" type="line" smooth="yes"/>
      <point x="288" y="407"/>
      <point x="276" y="416"/>
      <point x="276" y="432" type="curve" smooth="yes"/>
      <point x="276" y="447"/>
      <point x="286" y="461"/>
      <point x="308" y="461" type="curve" smooth="yes"/>
      <point x="328" y="461"/>
      <point x="335" y="449"/>
      <point x="335" y="435" type="curve" smooth="yes"/>
      <point x="335" y="416"/>
      <point x="308" y="394"/>
      <point x="228" y="368" type="curve" smooth="yes"/>
      <point x="87" y="322"/>
      <point x="22" y="259"/>
      <point x="22" y="167" type="curve" smooth="yes"/>
      <point x="22" y="59"/>
      <point x="139" y="-15"/>
    </contour>
  </outline>
</glyph>
<glyph name="aogonek.loclNAV" format="2">
  <advance width="639"/>
  <anchor x="298" y="0" name="bottom"/>
  <anchor x="591" y="0" name="ogonek"/>
  <anchor x="321" y="547" name="top"/>
  <outline>
    <contour>
      <point x="381" y="0" type="line"/>
      <point x="591" y="0" type="line"/>
      <point x="591" y="294" type="line" smooth="yes"/>
      <point x="591" y="476"/>
      <point x="481" y="557"/>
      <point x="301" y="557" type="curve" smooth="yes"/>
      <point x="208" y="557"/>
      <point x="113" y="535"/>
      <point x="49" y="495" type="curve"/>
      <point x="121" y="346" type="line"/>
      <point x="157" y="373"/>
      <point x="211" y="389"/>
      <point x="263" y="389" type="curve" smooth="yes"/>
      <point x="335" y="389"/>
      <point x="365" y="359"/>
      <point x="365" y="307" type="curve" smooth="yes"/>
      <point x="365" y="123" type="line"/>
      <point x="381" y="97" type="line"/>
    </contour>
    <contour>
      <point x="327" y="59" type="line"/>
      <point x="241" y="26"/>
      <point x="172" y="-42"/>
      <point x="172" y="-120" type="curve" smooth="yes"/>
      <point x="172" y="-191"/>
      <point x="230" y="-240"/>
      <point x="329" y="-240" type="curve" smooth="yes"/>
      <point x="373" y="-240"/>
      <point x="419" y="-230"/>
      <point x="443" y="-217" type="curve"/>
      <point x="416" y="-124" type="line"/>
      <point x="401" y="-131"/>
      <point x="379" y="-138"/>
      <point x="357" y="-138" type="curve" smooth="yes"/>
      <point x="320" y="-138"/>
      <point x="304" y="-119"/>
      <point x="304" y="-91" type="curve" smooth="yes"/>
      <point x="304" y="-66"/>
      <point x="317" y="-45"/>
      <point x="335" y="-17" type="curve" smooth="yes"/>
      <point x="360" y="22"/>
      <point x="382" y="58"/>
      <point x="398" y="111" type="curve"/>
      <point x="365" y="178" type="line"/>
      <point x="353" y="142"/>
      <point x="325" y="126"/>
      <point x="294" y="126" type="curve" smooth="yes"/>
      <point x="260" y="126"/>
      <point x="240" y="145"/>
      <point x="240" y="172" type="curve" smooth="yes"/>
      <point x="240" y="199"/>
      <point x="260" y="216"/>
      <point x="309" y="216" type="curve" smooth="yes"/>
      <point x="387" y="216" type="line"/>
      <point x="387" y="325" type="line"/>
      <point x="273" y="325" type="line" smooth="yes"/>
      <point x="103" y="325"/>
      <point x="23" y="265"/>
      <point x="23" y="162" type="curve" smooth="yes"/>
      <point x="23" y="66"/>
      <point x="92" y="-10"/>
      <point x="222" y="-10" type="curve" smooth="yes"/>
      <point x="248" y="-10"/>
      <point x="280" y="-7"/>
      <point x="318" y="7" type="curve"/>
    </contour>
  </outline>
</glyph>
<glyph name="aogonek.loclNAV.sc.ss01" format="2">
  <advance width="700"/>
  <anchor x="652" y="0" name="ogonek"/>
  <anchor x="350" y="582" name="top"/>
  <anchor x="54" y="582" name="topleft"/>
  <outline>
    <contour>
      <point x="48" y="0" type="line"/>
      <point x="278" y="0" type="line"/>
      <point x="278" y="332" type="line" smooth="yes"/>
      <point x="278" y="388"/>
      <point x="307" y="417"/>
      <point x="350" y="417" type="curve" smooth="yes"/>
      <point x="393" y="417"/>
      <point x="422" y="388"/>
      <point x="422" y="332" type="curve" smooth="yes"/>
      <point x="422" y="0" type="line"/>
      <point x="652" y="0" type="line"/>
      <point x="652" y="306" type="line" smooth="yes"/>
      <point x="652" y="490"/>
      <point x="528" y="597"/>
      <point x="350" y="597" type="curve" smooth="yes"/>
      <point x="172" y="597"/>
      <point x="48" y="490"/>
      <point x="48" y="306" type="curve" smooth="yes"/>
    </contour>
    <contour>
      <point x="364" y="-240" type="curve" smooth="yes"/>
      <point x="408" y="-240"/>
      <point x="454" y="-230"/>
      <point x="478" y="-217" type="curve"/>
      <point x="451" y="-124" type="line"/>
      <point x="436" y="-131"/>
      <point x="414" y="-138"/>
      <point x="392" y="-138" type="curve" smooth="yes"/>
      <point x="356" y="-138"/>
      <point x="339" y="-121"/>
      <point x="339" y="-102" type="curve" smooth="yes"/>
      <point x="339" y="-76"/>
      <point x="371" y="-54"/>
      <point x="429" y="-34" type="curve"/>
      <point x="387" y="31" type="line"/>
      <point x="276" y="3"/>
      <point x="207" y="-52"/>
      <point x="207" y="-124" type="curve" smooth="yes"/>
      <point x="207" y="-191"/>
      <point x="265" y="-240"/>
    </contour>
    <contour>
      <point x="192" y="106" type="line"/>
      <point x="503" y="106" type="line"/>
      <point x="503" y="274" type="line"/>
      <point x="192" y="274" type="line"/>
    </contour>
  </outline>
</glyph>
<glyph name="aogonek.loclNAV.ss01" format="2">
  <advance width="700"/>
  <anchor x="366" y="0" name="bottom"/>
  <anchor x="650" y="0" name="ogonek"/>
  <anchor x="366" y="547" name="top"/>
  <outline>
    <contour>
      <point x="339" y="166" type="curve" smooth="yes"/>
      <point x="289" y="166"/>
      <point x="250" y="203"/>
      <point x="250" y="274" type="curve" smooth="yes"/>
      <point x="250" y="345"/>
      <point x="289" y="381"/>
      <point x="339" y="381" type="curve" smooth="yes"/>
      <point x="389" y="381"/>
      <point x="428" y="345"/>
      <point x="428" y="274" type="curve" smooth="yes"/>
      <point x="428" y="203"/>
      <point x="389" y="166"/>
    </contour>
    <contour>
      <point x="435" y="0" type="line"/>
      <point x="650" y="0" type="line"/>
      <point x="650" y="547" type="line"/>
      <point x="424" y="547" type="line"/>
      <point x="424" y="474" type="line"/>
      <point x="434" y="274" type="line"/>
      <point x="435" y="74" type="line"/>
    </contour>
    <contour>
      <point x="369" y="-240" type="curve" smooth="yes"/>
      <point x="413" y="-240"/>
      <point x="459" y="-230"/>
      <point x="483" y="-217" type="curve"/>
      <point x="456" y="-124" type="line"/>
      <point x="441" y="-131"/>
      <point x="419" y="-138"/>
      <point x="397" y="-138" type="curve" smooth="yes"/>
      <point x="360" y="-138"/>
      <point x="344" y="-120"/>
      <point x="344" y="-92" type="curve" smooth="yes"/>
      <point x="344" y="-62"/>
      <point x="363" y="-37"/>
      <point x="440" y="52" type="curve" smooth="yes"/>
      <point x="470" y="87"/>
      <point x="493" y="149"/>
      <point x="493" y="267" type="curve" smooth="yes"/>
      <point x="493" y="468"/>
      <point x="427" y="557"/>
      <point x="290" y="557" type="curve" smooth="yes"/>
      <point x="140" y="557"/>
      <point x="21" y="450"/>
      <point x="21" y="275" type="curve" smooth="yes"/>
      <point x="21" y="98"/>
      <point x="142" y="-10"/>
      <point x="285" y="-10" type="curve" smooth="yes"/>
      <point x="329" y="-10"/>
      <point x="374" y="0"/>
      <point x="397" y="14" type="curve"/>
      <point x="375" y="76" type="line"/>
      <point x="270" y="17"/>
      <point x="212" y="-46"/>
      <point x="212" y="-119" type="curve" smooth="yes"/>
      <point x="212" y="-191"/>
      <point x="270" y="-240"/>
    </contour>
  </outline>
</glyph>
<glyph name="brevecomb-cy" format="2">
  <anchor x="228" y="547" name="_top"/>
  <outline>
    <contour>
      <point x="228" y="592" type="curve" smooth="yes"/>
      <point x="368" y="592"/>
      <point x="430" y="647"/>
      <point x="430" y="767" type="curve"/>
      <point x="283" y="767" type="line"/>
      <point x="283" y="726"/>
      <point x="268" y="701"/>
      <point x="227" y="701" type="curve" smooth="yes"/>
      <point x="184" y="701"/>
      <point x="173" y="726"/>
      <point x="173" y="767" type="curve"/>
      <point x="28" y="767" type="line"/>
      <point x="28" y="647"/>
      <point x="88" y="592"/>
    </contour>
  </outline>
</glyph>
<glyph name="brevecomb.narrow" format="2">
  <anchor x="300" y="547" name="_top"/>
  <anchor x="300" y="750" name="top"/>
  <outline>
    <contour>
      <point x="300" y="597" type="curve" smooth="yes"/>
      <point x="406" y="597"/>
      <point x="482" y="662"/>
      <point x="484" y="767" type="curve"/>
      <point x="354" y="767" type="line"/>
      <point x="354" y="730"/>
      <point x="335" y="704"/>
      <point x="300" y="704" type="curve" smooth="yes"/>
      <point x="265" y="704"/>
      <point x="246" y="730"/>
      <point x="246" y="767" type="curve"/>
      <point x="116" y="767" type="line"/>
      <point x="118" y="662"/>
      <point x="194" y="597"/>
    </contour>
  </outline>
</glyph>
<glyph name="cent.BRACKET.179" format="2">
  <advance width="615"/>
  <outline>
    <contour>
      <point x="344" y="-10" type="curve" smooth="yes"/>
      <point x="477" y="-10"/>
      <point x="577" y="51"/>
      <point x="613" y="152" type="curve"/>
      <point x="438" y="238" type="line"/>
      <point x="415" y="187"/>
      <point x="382" y="166"/>
      <point x="343" y="166" type="curve" smooth="yes"/>
      <point x="292" y="166"/>
      <point x="250" y="202"/>
      <point x="250" y="274" type="curve" smooth="yes"/>
      <point x="250" y="345"/>
      <point x="292" y="381"/>
      <point x="343" y="381" type="curve" smooth="yes"/>
      <point x="382" y="381"/>
      <point x="415" y="360"/>
      <point x="438" y="309" type="curve"/>
      <point x="613" y="395" type="line"/>
      <point x="577" y="496"/>
      <point x="477" y="557"/>
      <point x="344" y="557" type="curve" smooth="yes"/>
      <point x="155" y="557"/>
      <point x="21" y="440"/>
      <point x="21" y="274" type="curve" smooth="yes"/>
      <point x="21" y="107"/>
      <point x="155" y="-10"/>
    </contour>
    <contour>
      <point x="263" y="-120" type="line"/>
      <point x="404" y="-120" type="line"/>
      <point x="404" y="10" type="line"/>
      <point x="263" y="10" type="line"/>
    </contour>
    <contour>
      <point x="263" y="537" type="line"/>
      <point x="404" y="537" type="line"/>
      <point x="404" y="667" type="line"/>
      <point x="263" y="667" type="line"/>
    </contour>
  </outline>
</glyph>
<glyph name="e.sc.ss01" format="2">
  <advance width="606"/>
  <anchor x="324" y="0" name="bottom"/>
  <anchor x="558" y="0" name="ogonek"/>
  <anchor x="324" y="582" name="top"/>
  <anchor x="-12" y="582" name="topleft"/>
  <outline>
    <contour>
      <point x="532" y="4"/>
      <point x="598" y="33" type="curve"/>
      <point x="532" y="194" type="line"/>
      <point x="485" y="167"/>
      <point x="405" y="152"/>
      <point x="352" y="152" type="curve" smooth="yes"/>
      <point x="275" y="152"/>
      <point x="248" y="164"/>
      <point x="248" y="185" type="curve" smooth="yes"/>
      <point x="248" y="202"/>
      <point x="259" y="214"/>
      <point x="294" y="214" type="curve" smooth="yes"/>
      <point x="490" y="214" type="line"/>
      <point x="490" y="372" type="line"/>
      <point x="309" y="372" type="line" smooth="yes"/>
      <point x="281" y="372"/>
      <point x="272" y="381"/>
      <point x="272" y="397" type="curve" smooth="yes"/>
      <point x="272" y="417"/>
      <point x="298" y="430"/>
      <point x="364" y="430" type="curve" smooth="yes"/>
      <point x="413" y="430"/>
      <point x="471" y="422"/>
      <point x="521" y="398" type="curve"/>
      <point x="583" y="560" type="line"/>
      <point x="521" y="582"/>
      <point x="439" y="597"/>
      <point x="355" y="597" type="curve" smooth="yes"/>
      <point x="138" y="597"/>
      <point x="42" y="507"/>
      <point x="42" y="411" type="curve" smooth="yes"/>
      <point x="42" y="339"/>
      <point x="98" y="275"/>
      <point x="220" y="275" type="curve"/>
      <point x="216" y="323" type="line"/>
      <point x="88" y="323"/>
      <point x="18" y="254"/>
      <point x="18" y="170" type="curve" smooth="yes"/>
      <point x="18" y="62"/>
      <point x="129" y="-15"/>
      <point x="343" y="-15" type="curve" smooth="yes"/>
      <point x="435" y="-15"/>
    </contour>
  </outline>
</glyph>
<glyph name="eight.dnom" format="2">
  <advance width="430"/>
  <outline>
    <contour>
      <point x="215" y="-10" type="curve" smooth="yes"/>
      <point x="335" y="-10"/>
      <point x="419" y="43"/>
      <point x="419" y="124" type="curve" smooth="yes"/>
      <point x="419" y="206"/>
      <point x="332" y="249"/>
      <point x="215" y="249" type="curve" smooth="yes"/>
      <point x="99" y="249"/>
      <point x="11" y="206"/>
      <point x="11" y="124" type="curve" smooth="yes"/>
      <point x="11" y="43"/>
      <point x="95" y="-10"/>
    </contour>
    <contour>
      <point x="215" y="89" type="curve" smooth="yes"/>
      <point x="186" y="89"/>
      <point x="167" y="105"/>
      <point x="167" y="129" type="curve" smooth="yes"/>
      <point x="167" y="153"/>
      <point x="186" y="169"/>
      <point x="215" y="169" type="curve" smooth="yes"/>
      <point x="244" y="169"/>
      <point x="263" y="153"/>
      <point x="263" y="129" type="curve" smooth="yes"/>
      <point x="263" y="105"/>
      <point x="244" y="89"/>
    </contour>
    <contour>
      <point x="215" y="184" type="curve" smooth="yes"/>
      <point x="325" y="184"/>
      <point x="406" y="224"/>
      <point x="406" y="300" type="curve" smooth="yes"/>
      <point x="406" y="376"/>
      <point x="329" y="425"/>
      <point x="215" y="425" type="curve" smooth="yes"/>
      <point x="102" y="425"/>
      <point x="24" y="376"/>
      <point x="24" y="300" type="curve" smooth="yes"/>
      <point x="24" y="224"/>
      <point x="105" y="184"/>
    </contour>
    <contour>
      <point x="215" y="261" type="curve" smooth="yes"/>
      <point x="191" y="261"/>
      <point x="175" y="275"/>
      <point x="175" y="294" type="curve" smooth="yes"/>
      <point x="175" y="313"/>
      <point x="190" y="326"/>
      <point x="215" y="326" type="curve" smooth="yes"/>
      <point x="240" y="326"/>
      <point x="255" y="313"/>
      <point x="255" y="294" type="curve" smooth="yes"/>
      <point x="255" y="275"/>
      <point x="239" y="261"/>
    </contour>
  </outline>
</glyph>
<glyph name="el-cy.loclBGR" format="2">
  <advance width="668"/>
  <outline>
    <contour>
      <point x="451" y="547" type="line"/>
      <point x="217" y="547" type="line"/>
      <point x="-3" y="0" type="line"/>
      <point x="211" y="0" type="line"/>
      <point x="389" y="444" type="line"/>
      <point x="272" y="444" type="line"/>
      <point x="439" y="0" type="line"/>
      <point x="671" y="0" type="line"/>
    </contour>
  </outline>
</glyph>
<glyph name="eng.sc" format="2">
  <advance width="710"/>
  <outline>
    <contour>
      <point x="53" y="0" type="line"/>
      <point x="277" y="0" type="line"/>
      <point x="277" y="323" type="line"/>
      <point x="189" y="323" type="line"/>
      <point x="467" y="1" type="line"/>
      <point x="519" y="259" type="line"/>
      <point x="242" y="582" type="line"/>
      <point x="53" y="582" type="line"/>
    </contour>
    <contour>
      <point x="399" y="-170" type="curve" smooth="yes"/>
      <point x="568" y="-170"/>
      <point x="657" y="-79"/>
      <point x="657" y="128" type="curve" smooth="yes"/>
      <point x="657" y="582" type="line"/>
      <point x="433" y="582" type="line"/>
      <point x="433" y="61" type="line" smooth="yes"/>
      <point x="433" y="22"/>
      <point x="413" y="2"/>
      <point x="382" y="2" type="curve" smooth="yes"/>
      <point x="365" y="2"/>
      <point x="351" y="8"/>
      <point x="334" y="20" type="curve"/>
      <point x="249" y="-136" type="line"/>
      <point x="294" y="-160"/>
      <point x="340" y="-170"/>
    </contour>
  </outline>
</glyph>
<glyph name="eogonek.loclNAV.sc.ss01" format="2">
  <advance width="606"/>
  <anchor x="324" y="0" name="bottom"/>
  <anchor x="558" y="0" name="ogonek"/>
  <anchor x="324" y="582" name="top"/>
  <anchor x="-12" y="582" name="topleft"/>
  <outline>
    <contour>
      <point x="364" y="49" type="line"/>
      <point x="258" y="16"/>
      <point x="197" y="-43"/>
      <point x="197" y="-118" type="curve" smooth="yes"/>
      <point x="197" y="-192"/>
      <point x="256" y="-240"/>
      <point x="353" y="-240" type="curve" smooth="yes"/>
      <point x="398" y="-240"/>
      <point x="444" y="-230"/>
      <point x="468" y="-217" type="curve"/>
      <point x="441" y="-124" type="line"/>
      <point x="426" y="-131"/>
      <point x="404" y="-138"/>
      <point x="381" y="-138" type="curve" smooth="yes"/>
      <point x="345" y="-138"/>
      <point x="329" y="-121"/>
      <point x="329" y="-94" type="curve" smooth="yes"/>
      <point x="329" y="-54"/>
      <point x="363" y="-21"/>
      <point x="442" y="-8" type="curve" smooth="yes"/>
      <point x="484" y="-1"/>
      <point x="540" y="9"/>
      <point x="598" y="33" type="curve"/>
      <point x="532" y="194" type="line"/>
      <point x="479" y="165"/>
      <point x="408" y="152"/>
      <point x="341" y="152" type="curve" smooth="yes"/>
      <point x="277" y="152"/>
      <point x="248" y="164"/>
      <point x="248" y="187" type="curve" smooth="yes"/>
      <point x="248" y="201"/>
      <point x="259" y="214"/>
      <point x="294" y="214" type="curve" smooth="yes"/>
      <point x="490" y="214" type="line"/>
      <point x="490" y="372" type="line"/>
      <point x="309" y="372" type="line" smooth="yes"/>
      <point x="287" y="372"/>
      <point x="272" y="378"/>
      <point x="272" y="395" type="curve" smooth="yes"/>
      <point x="272" y="417"/>
      <point x="297" y="430"/>
      <point x="362" y="430" type="curve" smooth="yes"/>
      <point x="413" y="430"/>
      <point x="471" y="422"/>
      <point x="521" y="398" type="curve"/>
      <point x="583" y="560" type="line"/>
      <point x="521" y="582"/>
      <point x="440" y="597"/>
      <point x="353" y="597" type="curve" smooth="yes"/>
      <point x="139" y="597"/>
      <point x="42" y="507"/>
      <point x="42" y="411" type="curve" smooth="yes"/>
      <point x="42" y="339"/>
      <point x="98" y="275"/>
      <point x="220" y="275" type="curve"/>
      <point x="216" y="323" type="line"/>
      <point x="88" y="323"/>
      <point x="18" y="254"/>
      <point x="18" y="169" type="curve" smooth="yes"/>
      <point x="18" y="62"/>
      <point x="130" y="-15"/>
      <point x="340" y="-15" type="curve" smooth="yes"/>
      <point x="364" y="-15"/>
      <point x="383" y="-14"/>
      <point x="401" y="-13" type="curve"/>
    </contour>
  </outline>
</glyph>
<glyph name="eogonek.loclNAV.ss01" format="2">
  <advance width="653"/>
  <anchor x="331" y="0" name="bottom"/>
  <anchor x="450" y="0" name="ogonek"/>
  <anchor x="331" y="547" name="top"/>
  <outline>
    <contour>
      <point x="359" y="-241" type="curve" smooth="yes"/>
      <point x="404" y="-241"/>
      <point x="450" y="-231"/>
      <point x="474" y="-218" type="curve"/>
      <point x="447" y="-125" type="line"/>
      <point x="432" y="-132"/>
      <point x="410" y="-139"/>
      <point x="387" y="-139" type="curve" smooth="yes"/>
      <point x="351" y="-139"/>
      <point x="335" y="-122"/>
      <point x="335" y="-96" type="curve" smooth="yes"/>
      <point x="335" y="-54"/>
      <point x="375" y="-30"/>
      <point x="439" y="-8" type="curve" smooth="yes"/>
      <point x="500" y="13"/>
      <point x="545" y="33"/>
      <point x="591" y="78" type="curve"/>
      <point x="473" y="197" type="line"/>
      <point x="437" y="170"/>
      <point x="404" y="157"/>
      <point x="359" y="157" type="curve" smooth="yes"/>
      <point x="280" y="157"/>
      <point x="242" y="193"/>
      <point x="242" y="288" type="curve" smooth="yes"/>
      <point x="242" y="366"/>
      <point x="279" y="403"/>
      <point x="336" y="403" type="curve" smooth="yes"/>
      <point x="390" y="403"/>
      <point x="423" y="364"/>
      <point x="423" y="311" type="curve"/>
      <point x="498" y="362" type="line"/>
      <point x="212" y="306" type="line"/>
      <point x="212" y="196" type="line"/>
      <point x="632" y="277" type="line"/>
      <point x="632" y="459"/>
      <point x="494" y="557"/>
      <point x="335" y="557" type="curve" smooth="yes"/>
      <point x="155" y="557"/>
      <point x="21" y="440"/>
      <point x="21" y="274" type="curve" smooth="yes"/>
      <point x="21" y="110"/>
      <point x="152" y="-11"/>
      <point x="348" y="-11" type="curve" smooth="yes"/>
      <point x="365" y="-11"/>
      <point x="393" y="-10"/>
      <point x="420" y="-6" type="curve"/>
      <point x="370" y="48" type="line"/>
      <point x="264" y="15"/>
      <point x="203" y="-44"/>
      <point x="203" y="-119" type="curve" smooth="yes"/>
      <point x="203" y="-193"/>
      <point x="262" y="-241"/>
    </contour>
  </outline>
</glyph>
<glyph name="eogonek.sc.ss01" format="2">
  <advance width="606"/>
  <anchor x="324" y="582" name="top"/>
  <outline>
    <contour>
      <point x="488" y="-240" type="curve" smooth="yes"/>
      <point x="531" y="-240"/>
      <point x="577" y="-230"/>
      <point x="601" y="-217" type="curve"/>
      <point x="574" y="-124" type="line"/>
      <point x="559" y="-131"/>
      <point x="537" y="-138"/>
      <point x="515" y="-138" type="curve" smooth="yes"/>
      <point x="478" y="-138"/>
      <point x="462" y="-120"/>
      <point x="462" y="-94" type="curve" smooth="yes"/>
      <point x="462" y="-56"/>
      <point x="508" y="-3"/>
      <point x="598" y="33" type="curve"/>
      <point x="532" y="194" type="line"/>
      <point x="485" y="167"/>
      <point x="405" y="152"/>
      <point x="352" y="152" type="curve" smooth="yes"/>
      <point x="275" y="152"/>
      <point x="248" y="164"/>
      <point x="248" y="185" type="curve" smooth="yes"/>
      <point x="248" y="202"/>
      <point x="259" y="214"/>
      <point x="294" y="214" type="curve" smooth="yes"/>
      <point x="490" y="214" type="line"/>
      <point x="490" y="372" type="line"/>
      <point x="309" y="372" type="line" smooth="yes"/>
      <point x="281" y="372"/>
      <point x="272" y="381"/>
      <point x="272" y="397" type="curve" smooth="yes"/>
      <point x="272" y="417"/>
      <point x="298" y="430"/>
      <point x="364" y="430" type="curve" smooth="yes"/>
      <point x="413" y="430"/>
      <point x="471" y="422"/>
      <point x="521" y="398" type="curve"/>
      <point x="583" y="560" type="line"/>
      <point x="521" y="582"/>
      <point x="439" y="597"/>
      <point x="355" y="597" type="curve" smooth="yes"/>
      <point x="138" y="597"/>
      <point x="42" y="507"/>
      <point x="42" y="411" type="curve" smooth="yes"/>
      <point x="42" y="339"/>
      <point x="98" y="275"/>
      <point x="220" y="275" type="curve"/>
      <point x="216" y="323" type="line"/>
      <point x="88" y="323"/>
      <point x="18" y="254"/>
      <point x="18" y="170" type="curve" smooth="yes"/>
      <point x="18" y="62"/>
      <point x="129" y="-15"/>
      <point x="343" y="-15" type="curve" smooth="yes"/>
      <point x="373" y="-15"/>
      <point x="405" y="-12"/>
      <point x="439" y="-9" type="curve"/>
      <point x="445" y="30" type="line"/>
      <point x="372" y="-4"/>
      <point x="330" y="-55"/>
      <point x="330" y="-117" type="curve" smooth="yes"/>
      <point x="330" y="-192"/>
      <point x="388" y="-240"/>
    </contour>
  </outline>
</glyph>
<glyph name="five.dnom" format="2">
  <advance width="430"/>
  <outline>
    <contour>
      <point x="193" y="-10" type="curve" smooth="yes"/>
      <point x="343" y="-10"/>
      <point x="405" y="63"/>
      <point x="405" y="136" type="curve" smooth="yes"/>
      <point x="405" y="213"/>
      <point x="356" y="271"/>
      <point x="205" y="271" type="curve" smooth="yes"/>
      <point x="101" y="271" type="line"/>
      <point x="185" y="208" type="line"/>
      <point x="198" y="367" type="line"/>
      <point x="116" y="304" type="line"/>
      <point x="373" y="304" type="line"/>
      <point x="373" y="415" type="line"/>
      <point x="63" y="415" type="line"/>
      <point x="38" y="160" type="line"/>
      <point x="180" y="160" type="line" smooth="yes"/>
      <point x="235" y="160"/>
      <point x="247" y="149"/>
      <point x="247" y="134" type="curve" smooth="yes"/>
      <point x="247" y="115"/>
      <point x="228" y="106"/>
      <point x="189" y="106" type="curve" smooth="yes"/>
      <point x="149" y="106"/>
      <point x="102" y="116"/>
      <point x="59" y="135" type="curve"/>
      <point x="8" y="26" type="line"/>
      <point x="54" y="4"/>
      <point x="124" y="-10"/>
    </contour>
  </outline>
</glyph>
<glyph name="g.sc.ss01" format="2">
  <advance width="666"/>
  <anchor x="352" y="3" name="bottom"/>
  <anchor x="366" y="583" name="top"/>
  <outline>
    <contour>
      <point x="335" y="-15" type="curve" smooth="yes"/>
      <point x="443" y="-15"/>
      <point x="528" y="35"/>
      <point x="566" y="148" type="curve"/>
      <point x="468" y="225" type="line"/>
      <point x="451" y="182"/>
      <point x="411" y="161"/>
      <point x="363" y="161" type="curve" smooth="yes"/>
      <point x="303" y="161"/>
      <point x="256" y="197"/>
      <point x="256" y="279" type="curve" smooth="yes"/>
      <point x="256" y="371"/>
      <point x="299" y="417"/>
      <point x="374" y="417" type="curve" smooth="yes"/>
      <point x="421" y="417"/>
      <point x="461" y="397"/>
      <point x="495" y="354" type="curve"/>
      <point x="646" y="479" type="line"/>
      <point x="586" y="556"/>
      <point x="497" y="597"/>
      <point x="374" y="597" type="curve" smooth="yes"/>
      <point x="168" y="597"/>
      <point x="24" y="468"/>
      <point x="24" y="281" type="curve" smooth="yes"/>
      <point x="24" y="102"/>
      <point x="155" y="-15"/>
    </contour>
    <contour>
      <point x="487" y="0" type="line"/>
      <point x="626" y="0" type="line"/>
      <point x="626" y="304" type="line"/>
      <point x="427" y="304" type="line"/>
      <point x="427" y="97" type="line"/>
      <point x="487" y="74" type="line"/>
    </contour>
  </outline>
</glyph>
<glyph name="ii-cy.ss01" format="2">
  <advance width="693"/>
  <anchor x="340" y="0" name="bottom"/>
  <anchor x="425" y="0" name="bottomleft"/>
  <anchor x="632" y="0" name="bottomright"/>
  <anchor x="640" y="0" name="ogonek"/>
  <anchor x="333" y="547" name="top"/>
  <anchor x="527" y="547" name="topright"/>
  <outline>
    <contour>
      <point x="270" y="-10" type="curve" smooth="yes"/>
      <point x="353" y="-10"/>
      <point x="429" y="30"/>
      <point x="468" y="115" type="curve"/>
      <point x="425" y="158" type="line"/>
      <point x="425" y="0" type="line"/>
      <point x="640" y="0" type="line"/>
      <point x="640" y="547" type="line"/>
      <point x="414" y="547" type="line"/>
      <point x="414" y="290" type="line" smooth="yes"/>
      <point x="414" y="209"/>
      <point x="376" y="180"/>
      <point x="337" y="180" type="curve" smooth="yes"/>
      <point x="293" y="180"/>
      <point x="266" y="206"/>
      <point x="266" y="284" type="curve" smooth="yes"/>
      <point x="266" y="547" type="line"/>
      <point x="40" y="547" type="line"/>
      <point x="40" y="245" type="line" smooth="yes"/>
      <point x="40" y="67"/>
      <point x="139" y="-10"/>
    </contour>
  </outline>
</glyph>
<glyph name="ij.sc.ss01" format="2">
  <advance width="642"/>
  <anchor x="151" y="582" name="top"/>
  <outline>
    <contour>
      <point x="276" y="-92" type="curve" smooth="yes"/>
      <point x="472" y="-92"/>
      <point x="594" y="13"/>
      <point x="594" y="199" type="curve" smooth="yes"/>
      <point x="594" y="582" type="line"/>
      <point x="364" y="582" type="line"/>
      <point x="364" y="187" type="line" smooth="yes"/>
      <point x="364" y="115"/>
      <point x="330" y="85"/>
      <point x="265" y="85" type="curve" smooth="yes"/>
      <point x="209" y="85"/>
      <point x="155" y="103"/>
      <point x="105" y="138" type="curve"/>
      <point x="22" y="-22" type="line"/>
      <point x="85" y="-65"/>
      <point x="166" y="-92"/>
    </contour>
    <contour>
      <point x="40" y="202" type="line"/>
      <point x="270" y="202" type="line"/>
      <point x="270" y="582" type="line"/>
      <point x="40" y="582" type="line"/>
    </contour>
  </outline>
</glyph>
<glyph name="k.sc" format="2">
  <advance width="678"/>
  <anchor x="342" y="0" name="bottom"/>
  <anchor x="342" y="582" name="top"/>
  <outline>
    <contour>
      <point x="258" y="121" type="line"/>
      <point x="313" y="185" type="line"/>
      <point x="441" y="309" type="line"/>
      <point x="689" y="582" type="line"/>
      <point x="439" y="582" type="line"/>
      <point x="246" y="365" type="line"/>
    </contour>
    <contour>
      <point x="53" y="0" type="line"/>
      <point x="279" y="0" type="line"/>
      <point x="279" y="582" type="line"/>
      <point x="53" y="582" type="line"/>
    </contour>
    <contour>
      <point x="434" y="0" type="line"/>
      <point x="699" y="0" type="line"/>
      <point x="426" y="366" type="line"/>
      <point x="277" y="213" type="line"/>
    </contour>
  </outline>
</glyph>
<glyph name="nine.tf" format="2">
  <advance width="700"/>
  <outline>
    <contour>
      <point x="327" y="716" type="curve" smooth="yes"/>
      <point x="147" y="716"/>
      <point x="21" y="619"/>
      <point x="21" y="471" type="curve" smooth="yes"/>
      <point x="21" y="336"/>
      <point x="132" y="247"/>
      <point x="276" y="247" type="curve" smooth="yes"/>
      <point x="379" y="247"/>
      <point x="446" y="281"/>
      <point x="488" y="355" type="curve"/>
      <point x="437" y="398" type="line"/>
      <point x="437" y="378"/>
      <point x="437" y="359"/>
      <point x="437" y="331" type="curve" smooth="yes"/>
      <point x="437" y="229"/>
      <point x="366" y="167"/>
      <point x="258" y="167" type="curve" smooth="yes"/>
      <point x="207" y="167"/>
      <point x="157" y="180"/>
      <point x="121" y="207" type="curve"/>
      <point x="36" y="38" type="line"/>
      <point x="86" y="4"/>
      <point x="170" y="-16"/>
      <point x="259" y="-16" type="curve" smooth="yes"/>
      <point x="521" y="-16"/>
      <point x="671" y="159"/>
      <point x="671" y="372" type="curve" smooth="yes"/>
      <point x="671" y="586"/>
      <point x="540" y="716"/>
    </contour>
    <contour>
      <point x="336" y="555" type="curve" smooth="yes"/>
      <point x="382" y="555"/>
      <point x="418" y="528"/>
      <point x="418" y="482" type="curve" smooth="yes"/>
      <point x="418" y="436"/>
      <point x="380" y="408"/>
      <point x="336" y="408" type="curve" smooth="yes"/>
      <point x="292" y="408"/>
      <point x="256" y="436"/>
      <point x="256" y="482" type="curve" smooth="yes"/>
      <point x="256" y="528"/>
      <point x="292" y="555"/>
    </contour>
  </outline>
</glyph>
<glyph name="one.dnom" format="2">
  <advance width="430"/>
  <outline>
    <contour>
      <point x="312" y="65" type="line"/>
      <point x="312" y="415" type="line"/>
      <point x="74" y="415" type="line"/>
      <point x="74" y="304" type="line"/>
      <point x="220" y="304" type="line"/>
      <point x="152" y="364" type="line"/>
      <point x="152" y="65" type="line"/>
      <point x="178" y="111" type="line"/>
      <point x="64" y="111" type="line"/>
      <point x="64" y="0" type="line"/>
      <point x="386" y="0" type="line"/>
      <point x="386" y="111" type="line"/>
      <point x="286" y="111" type="line"/>
    </contour>
  </outline>
</glyph>
<glyph name="period.sc" format="2">
  <advance width="314"/>
  <outline>
    <contour>
      <point x="157" y="-10" type="curve" smooth="yes"/>
      <point x="235" y="-10"/>
      <point x="289" y="44"/>
      <point x="289" y="110" type="curve" smooth="yes"/>
      <point x="289" y="177"/>
      <point x="235" y="228"/>
      <point x="157" y="228" type="curve" smooth="yes"/>
      <point x="79" y="228"/>
      <point x="25" y="177"/>
      <point x="25" y="110" type="curve" smooth="yes"/>
      <point x="25" y="44"/>
      <point x="79" y="-10"/>
    </contour>
  </outline>
</glyph>
<glyph name="periodcentered.sc" format="2">
  <advance width="344"/>
  <anchor x="172" y="320" name="_dot"/>
  <outline>
    <contour>
      <point x="172" y="187" type="curve" smooth="yes"/>
      <point x="247" y="187"/>
      <point x="304" y="241"/>
      <point x="304" y="317" type="curve" smooth="yes"/>
      <point x="304" y="394"/>
      <point x="247" y="445"/>
      <point x="172" y="445" type="curve" smooth="yes"/>
      <point x="97" y="445"/>
      <point x="40" y="394"/>
      <point x="40" y="317" type="curve" smooth="yes"/>
      <point x="40" y="241"/>
      <point x="97" y="187"/>
    </contour>
  </outline>
</glyph>
<glyph name="peso.BRACKET.130" format="2">
  <advance width="896"/>
  <outline>
    <contour>
      <point x="120" y="0" type="line"/>
      <point x="356" y="0" type="line"/>
      <point x="356" y="273" type="line"/>
      <point x="251" y="172" type="line"/>
      <point x="457" y="172" type="line" smooth="yes"/>
      <point x="652" y="172"/>
      <point x="776" y="274"/>
      <point x="776" y="436" type="curve" smooth="yes"/>
      <point x="776" y="598"/>
      <point x="652" y="700"/>
      <point x="457" y="700" type="curve" smooth="yes"/>
      <point x="120" y="700" type="line"/>
    </contour>
    <contour>
      <point x="30" y="311" type="line"/>
      <point x="172" y="311" type="line"/>
      <point x="172" y="423" type="line"/>
      <point x="30" y="423" type="line"/>
    </contour>
    <contour>
      <point x="30" y="449" type="line"/>
      <point x="172" y="449" type="line"/>
      <point x="172" y="561" type="line"/>
      <point x="30" y="561" type="line"/>
    </contour>
    <contour>
      <point x="356" y="247" type="line"/>
      <point x="356" y="625" type="line"/>
      <point x="251" y="518" type="line"/>
      <point x="442" y="518" type="line" smooth="yes"/>
      <point x="507" y="518"/>
      <point x="538" y="487"/>
      <point x="538" y="436" type="curve" smooth="yes"/>
      <point x="538" y="385"/>
      <point x="507" y="354"/>
      <point x="442" y="354" type="curve" smooth="yes"/>
      <point x="251" y="354" type="line"/>
    </contour>
    <contour>
      <point x="635" y="311" type="line"/>
      <point x="866" y="311" type="line"/>
      <point x="866" y="423" type="line"/>
      <point x="656" y="423" type="line"/>
    </contour>
    <contour>
      <point x="657" y="449" type="line"/>
      <point x="866" y="449" type="line"/>
      <point x="866" y="561" type="line"/>
      <point x="633" y="561" type="line"/>
    </contour>
  </outline>
</glyph>
<glyph name="question.sc" format="2">
  <advance width="546"/>
  <outline>
    <contour>
      <point x="169" y="248" type="curve"/>
      <point x="373" y="248" type="line"/>
      <point x="373" y="307"/>
      <point x="513" y="328"/>
      <point x="513" y="441" type="curve" smooth="yes"/>
      <point x="513" y="541"/>
      <point x="401" y="592"/>
      <point x="262" y="592" type="curve" smooth="yes"/>
      <point x="131" y="592"/>
      <point x="35" y="545"/>
      <point x="-13" y="467" type="curve"/>
      <point x="153" y="380" type="line"/>
      <point x="169" y="408"/>
      <point x="198" y="426"/>
      <point x="235" y="426" type="curve" smooth="yes"/>
      <point x="262" y="426"/>
      <point x="278" y="416"/>
      <point x="278" y="399" type="curve" smooth="yes"/>
      <point x="278" y="355"/>
      <point x="169" y="329"/>
    </contour>
    <contour>
      <point x="275" y="-10" type="curve" smooth="yes"/>
      <point x="359" y="-10"/>
      <point x="407" y="44"/>
      <point x="407" y="100" type="curve" smooth="yes"/>
      <point x="407" y="157"/>
      <point x="359" y="208"/>
      <point x="275" y="208" type="curve" smooth="yes"/>
      <point x="191" y="208"/>
      <point x="143" y="157"/>
      <point x="143" y="100" type="curve" smooth="yes"/>
      <point x="143" y="44"/>
      <point x="191" y="-10"/>
    </contour>
  </outline>
</glyph>
<glyph name="quotesinglbase.sc" format="2">
  <advance width="304"/>
  <outline>
    <contour>
      <point x="49" y="-124" type="line"/>
      <point x="189" y="-124" type="line"/>
      <point x="245" y="-11" type="line" smooth="yes"/>
      <point x="282" y="63"/>
      <point x="284" y="88"/>
      <point x="284" y="115" type="curve" smooth="yes"/>
      <point x="284" y="188"/>
      <point x="228" y="238"/>
      <point x="152" y="238" type="curve" smooth="yes"/>
      <point x="76" y="238"/>
      <point x="20" y="188"/>
      <point x="20" y="115" type="curve" smooth="yes"/>
      <point x="20" y="42"/>
      <point x="74" y="-5"/>
      <point x="152" y="-5" type="curve"/>
      <point x="119" y="121" type="line"/>
    </contour>
  </outline>
</glyph>
<glyph name="schwa-cy.ss01" format="2">
  <advance width="653"/>
  <anchor x="322" y="0" name="bottom"/>
  <anchor x="203" y="547" name="ogonek"/>
  <anchor x="322" y="547" name="top"/>
  <outline>
    <contour>
      <point x="301" y="557" type="curve" smooth="yes"/>
      <point x="193" y="557"/>
      <point x="116" y="527"/>
      <point x="62" y="469" type="curve"/>
      <point x="180" y="350" type="line"/>
      <point x="216" y="377"/>
      <point x="244" y="390"/>
      <point x="294" y="390" type="curve" smooth="yes"/>
      <point x="373" y="390"/>
      <point x="411" y="354"/>
      <point x="411" y="259" type="curve" smooth="yes"/>
      <point x="411" y="181"/>
      <point x="374" y="144"/>
      <point x="317" y="144" type="curve" smooth="yes"/>
      <point x="263" y="144"/>
      <point x="230" y="183"/>
      <point x="230" y="236" type="curve"/>
      <point x="155" y="185" type="line"/>
      <point x="441" y="241" type="line"/>
      <point x="441" y="351" type="line"/>
      <point x="21" y="270" type="line"/>
      <point x="21" y="88"/>
      <point x="159" y="-10"/>
      <point x="318" y="-10" type="curve" smooth="yes"/>
      <point x="498" y="-10"/>
      <point x="632" y="107"/>
      <point x="632" y="273" type="curve" smooth="yes"/>
      <point x="632" y="436"/>
      <point x="502" y="557"/>
    </contour>
  </outline>
</glyph>
<glyph name="schwa.sc" format="2">
  <advance width="686"/>
  <anchor x="343" y="0" name="bottom"/>
  <anchor x="343" y="582" name="top"/>
  <outline>
    <contour>
      <point x="343" y="-15" type="curve" smooth="yes"/>
      <point x="528" y="-15"/>
      <point x="662" y="108"/>
      <point x="662" y="291" type="curve" smooth="yes"/>
      <point x="662" y="471"/>
      <point x="524" y="597"/>
      <point x="335" y="597" type="curve" smooth="yes"/>
      <point x="235" y="597"/>
      <point x="138" y="564"/>
      <point x="85" y="517" type="curve"/>
      <point x="207" y="376" type="line"/>
      <point x="238" y="400"/>
      <point x="281" y="417"/>
      <point x="325" y="417" type="curve" smooth="yes"/>
      <point x="392" y="417"/>
      <point x="435" y="370"/>
      <point x="435" y="300" type="curve" smooth="yes"/>
      <point x="435" y="255" type="line" smooth="yes"/>
      <point x="435" y="176"/>
      <point x="410" y="137"/>
      <point x="345" y="137" type="curve" smooth="yes"/>
      <point x="278" y="137"/>
      <point x="251" y="176"/>
      <point x="251" y="255" type="curve"/>
      <point x="178" y="210" type="line"/>
      <point x="459" y="210" type="line"/>
      <point x="459" y="335" type="line"/>
      <point x="24" y="335" type="line"/>
      <point x="24" y="300" type="line" smooth="yes"/>
      <point x="24" y="109"/>
      <point x="153" y="-15"/>
    </contour>
  </outline>
</glyph>
<glyph name="seven.tosf" format="2">
  <advance width="700"/>
  <outline>
    <contour>
      <point x="147" y="-100" type="line"/>
      <point x="402" y="-100" type="line"/>
      <point x="658" y="455" type="line"/>
      <point x="658" y="600" type="line"/>
      <point x="49" y="600" type="line"/>
      <point x="49" y="315" type="line"/>
      <point x="244" y="315" type="line"/>
      <point x="244" y="524" type="line"/>
      <point x="152" y="417" type="line"/>
      <point x="494" y="417" type="line"/>
      <point x="431" y="516" type="line"/>
    </contour>
  </outline>
</glyph>
<glyph name="slashlongcomb.case" format="2">
  <anchor x="400" y="350" name="_center"/>
  <outline>
    <contour>
      <point x="37" y="-70" type="line"/>
      <point x="167" y="-70" type="line"/>
      <point x="763" y="770" type="line"/>
      <point x="633" y="770" type="line"/>
    </contour>
  </outline>
</glyph>
<glyph name="slashshortcomb.case" format="2">
  <anchor x="300" y="401" name="_center"/>
  <outline>
    <contour>
      <point x="139" y="205" type="line"/>
      <point x="584" y="535" type="line"/>
      <point x="514" y="635" type="line"/>
      <point x="69" y="305" type="line"/>
    </contour>
  </outline>
</glyph>
<glyph name="thorn.sc" format="2">
  <advance width="653"/>
  <outline>
    <contour>
      <point x="236" y="83" type="line"/>
      <point x="352" y="83" type="line" smooth="yes"/>
      <point x="520" y="83"/>
      <point x="628" y="169"/>
      <point x="628" y="306" type="curve" smooth="yes"/>
      <point x="628" y="443"/>
      <point x="520" y="530"/>
      <point x="352" y="530" type="curve" smooth="yes"/>
      <point x="236" y="530" type="line"/>
      <point x="236" y="361" type="line"/>
      <point x="334" y="361" type="line" smooth="yes"/>
      <point x="378" y="361"/>
      <point x="398" y="338"/>
      <point x="398" y="306" type="curve" smooth="yes"/>
      <point x="398" y="274"/>
      <point x="378" y="251"/>
      <point x="334" y="251" type="curve" smooth="yes"/>
      <point x="236" y="251" type="line"/>
    </contour>
    <contour>
      <point x="53" y="0" type="line"/>
      <point x="283" y="0" type="line"/>
      <point x="283" y="583" type="line"/>
      <point x="53" y="583" type="line"/>
    </contour>
  </outline>
</glyph>
<glyph name="two.osf" format="2">
  <advance width="608"/>
  <outline>
    <contour>
      <point x="29" y="0" type="line"/>
      <point x="590" y="0" type="line"/>
      <point x="590" y="175" type="line"/>
      <point x="224" y="175" type="line"/>
      <point x="261" y="77" type="line"/>
      <point x="454" y="222" type="line" smooth="yes"/>
      <point x="556" y="295"/>
      <point x="574" y="347"/>
      <point x="574" y="417" type="curve" smooth="yes"/>
      <point x="574" y="530"/>
      <point x="459" y="616"/>
      <point x="291" y="616" type="curve" smooth="yes"/>
      <point x="142" y="616"/>
      <point x="39" y="550"/>
      <point x="-12" y="454" type="curve"/>
      <point x="162" y="367" type="line"/>
      <point x="183" y="409"/>
      <point x="219" y="434"/>
      <point x="272" y="434" type="curve" smooth="yes"/>
      <point x="314" y="434"/>
      <point x="337" y="418"/>
      <point x="337" y="392" type="curve" smooth="yes"/>
      <point x="337" y="370"/>
      <point x="325" y="349"/>
      <point x="284" y="318" type="curve" smooth="yes"/>
      <point x="29" y="125" type="line"/>
    </contour>
  </outline>
</glyph>
<glyph name="two.tosf" format="2">
  <advance width="700"/>
  <outline>
    <contour>
      <point x="72" y="0" type="line"/>
      <point x="648" y="0" type="line"/>
      <point x="648" y="175" type="line"/>
      <point x="268" y="175" type="line"/>
      <point x="304" y="77" type="line"/>
      <point x="504" y="222" type="line" smooth="yes"/>
      <point x="605" y="294"/>
      <point x="623" y="347"/>
      <point x="623" y="417" type="curve" smooth="yes"/>
      <point x="623" y="530"/>
      <point x="507" y="616"/>
      <point x="335" y="616" type="curve" smooth="yes"/>
      <point x="180" y="616"/>
      <point x="79" y="550"/>
      <point x="28" y="454" type="curve"/>
      <point x="202" y="367" type="line"/>
      <point x="223" y="409"/>
      <point x="261" y="434"/>
      <point x="316" y="434" type="curve" smooth="yes"/>
      <point x="363" y="434"/>
      <point x="386" y="418"/>
      <point x="386" y="392" type="curve" smooth="yes"/>
      <point x="386" y="370"/>
      <point x="373" y="349"/>
      <point x="332" y="318" type="curve" smooth="yes"/>
      <point x="72" y="125" type="line"/>
    </contour>
  </outline>
</glyph>
<glyph name="udieresis.sc.ss01.alt" format="2">
  <advance width="701"/>
  <outline>
    <contour>
      <point x="393" y="455" type="curve" smooth="yes"/>
      <point x="434" y="455"/>
      <point x="465" y="483"/>
      <point x="465" y="526" type="curve" smooth="yes"/>
      <point x="465" y="568"/>
      <point x="434" y="597"/>
      <point x="393" y="597" type="curve" smooth="yes"/>
      <point x="352" y="597"/>
      <point x="321" y="568"/>
      <point x="321" y="526" type="curve" smooth="yes"/>
      <point x="321" y="483"/>
      <point x="352" y="455"/>
    </contour>
    <contour>
      <point x="305" y="455" type="curve" smooth="yes"/>
      <point x="346" y="455"/>
      <point x="377" y="483"/>
      <point x="377" y="526" type="curve" smooth="yes"/>
      <point x="377" y="568"/>
      <point x="346" y="597"/>
      <point x="305" y="597" type="curve" smooth="yes"/>
      <point x="264" y="597"/>
      <point x="233" y="568"/>
      <point x="233" y="526" type="curve" smooth="yes"/>
      <point x="233" y="483"/>
      <point x="264" y="455"/>
    </contour>
    <contour>
      <point x="267" y="-15" type="curve" smooth="yes"/>
      <point x="359" y="-15"/>
      <point x="428" y="27"/>
      <point x="465" y="102" type="curve"/>
      <point x="425" y="151" type="line"/>
      <point x="425" y="0" type="line"/>
      <point x="648" y="0" type="line"/>
      <point x="648" y="582" type="line"/>
      <point x="418" y="582" type="line"/>
      <point x="418" y="256" type="line" smooth="yes"/>
      <point x="418" y="191"/>
      <point x="380" y="165"/>
      <point x="342" y="165" type="curve" smooth="yes"/>
      <point x="305" y="165"/>
      <point x="278" y="188"/>
      <point x="278" y="251" type="curve" smooth="yes"/>
      <point x="278" y="582" type="line"/>
      <point x="48" y="582" type="line"/>
      <point x="48" y="236" type="line" smooth="yes"/>
      <point x="48" y="77"/>
      <point x="128" y="-15"/>
    </contour>
  </outline>
</glyph>
<glyph name="uogonek.loclNAV.sc.ss01" format="2">
  <advance width="701"/>
  <anchor x="349" y="0" name="bottom"/>
  <anchor x="648" y="0" name="ogonek"/>
  <anchor x="349" y="582" name="top"/>
  <anchor x="547" y="582" name="topright"/>
  <outline>
    <contour>
      <point x="375" y="49" type="line"/>
      <point x="269" y="16"/>
      <point x="208" y="-43"/>
      <point x="208" y="-117" type="curve" smooth="yes"/>
      <point x="208" y="-192"/>
      <point x="266" y="-240"/>
      <point x="366" y="-240" type="curve" smooth="yes"/>
      <point x="409" y="-240"/>
      <point x="455" y="-230"/>
      <point x="479" y="-217" type="curve"/>
      <point x="452" y="-124" type="line"/>
      <point x="437" y="-131"/>
      <point x="415" y="-138"/>
      <point x="393" y="-138" type="curve" smooth="yes"/>
      <point x="356" y="-138"/>
      <point x="340" y="-120"/>
      <point x="340" y="-97" type="curve" smooth="yes"/>
      <point x="340" y="-66"/>
      <point x="358" y="-35"/>
      <point x="416" y="28" type="curve" smooth="yes"/>
      <point x="433" y="47"/>
      <point x="453" y="78"/>
      <point x="465" y="102" type="curve"/>
      <point x="425" y="151" type="line"/>
      <point x="425" y="0" type="line"/>
      <point x="648" y="0" type="line"/>
      <point x="648" y="582" type="line"/>
      <point x="418" y="582" type="line"/>
      <point x="418" y="256" type="line" smooth="yes"/>
      <point x="418" y="191"/>
      <point x="380" y="165"/>
      <point x="342" y="165" type="curve" smooth="yes"/>
      <point x="305" y="165"/>
      <point x="278" y="188"/>
      <point x="278" y="251" type="curve" smooth="yes"/>
      <point x="278" y="582" type="line"/>
      <point x="48" y="582" type="line"/>
      <point x="48" y="236" type="line" smooth="yes"/>
      <point x="48" y="77"/>
      <point x="128" y="-15"/>
      <point x="267" y="-15" type="curve" smooth="yes"/>
      <point x="306" y="-15"/>
      <point x="341" y="-8"/>
      <point x="370" y="7" type="curve"/>
    </contour>
  </outline>
</glyph>
<glyph name="won.BRACKET.130" format="2">
  <advance width="1310"/>
  <outline>
    <contour>
      <point x="276" y="0" type="line"/>
      <point x="529" y="0" type="line"/>
      <point x="693" y="484" type="line"/>
      <point x="625" y="484" type="line"/>
      <point x="781" y="0" type="line"/>
      <point x="1034" y="0" type="line"/>
      <point x="1268" y="700" type="line"/>
      <point x="1041" y="700" type="line"/>
      <point x="842" y="109" type="line"/>
      <point x="965" y="109" type="line"/>
      <point x="776" y="700" type="line"/>
      <point x="553" y="700" type="line"/>
      <point x="351" y="109" type="line"/>
      <point x="479" y="109" type="line"/>
      <point x="288" y="700" type="line"/>
      <point x="42" y="700" type="line"/>
    </contour>
    <contour>
      <point x="324" y="225" type="line"/>
      <point x="286" y="337" type="line"/>
      <point x="30" y="337" type="line"/>
      <point x="30" y="225" type="line"/>
    </contour>
    <contour>
      <point x="278" y="363" type="line"/>
      <point x="240" y="475" type="line"/>
      <point x="30" y="475" type="line"/>
      <point x="30" y="363" type="line"/>
    </contour>
    <contour>
      <point x="1077" y="475" type="line"/>
      <point x="1043" y="363" type="line"/>
      <point x="1280" y="363" type="line"/>
      <point x="1280" y="475" type="line"/>
    </contour>
    <contour>
      <point x="1036" y="337" type="line"/>
      <point x="1002" y="225" type="line"/>
      <point x="1280" y="225" type="line"/>
      <point x="1280" y="337" type="line"/>
    </contour>
  </outline>
</glyph>
<glyph name="x.sc" format="2">
  <advance width="669"/>
  <outline>
    <contour>
      <point x="-9" y="0" type="line"/>
      <point x="253" y="0" type="line"/>
      <point x="385" y="217" type="line"/>
      <point x="278" y="216" type="line"/>
      <point x="415" y="0" type="line"/>
      <point x="678" y="0" type="line"/>
      <point x="404" y="379" type="line"/>
      <point x="404" y="223" type="line"/>
      <point x="666" y="582" type="line"/>
      <point x="419" y="582" type="line"/>
      <point x="283" y="373" type="line"/>
      <point x="394" y="374" type="line"/>
      <point x="255" y="582" type="line"/>
      <point x="-3" y="582" type="line"/>
      <point x="258" y="215" type="line"/>
      <point x="259" y="370" type="line"/>
    </contour>
  </outline>
</glyph>
<glyph name="y.sc.ss01" format="2">
  <advance width="692"/>
  <anchor x="625" y="13" name="bottom"/>
  <anchor x="344" y="582" name="top"/>
  <outline>
    <contour>
      <point x="323" y="-98" type="curve" smooth="yes"/>
      <point x="518" y="-98"/>
      <point x="644" y="5"/>
      <point x="644" y="191" type="curve" smooth="yes"/>
      <point x="644" y="582" type="line"/>
      <point x="414" y="582" type="line"/>
      <point x="414" y="392" type="line" smooth="yes"/>
      <point x="414" y="332"/>
      <point x="377" y="312"/>
      <point x="341" y="312" type="curve" smooth="yes"/>
      <point x="297" y="312"/>
      <point x="273" y="337"/>
      <point x="273" y="386" type="curve" smooth="yes"/>
      <point x="273" y="582" type="line"/>
      <point x="43" y="582" type="line"/>
      <point x="43" y="375" type="line" smooth="yes"/>
      <point x="43" y="218"/>
      <point x="127" y="132"/>
      <point x="278" y="132" type="curve" smooth="yes"/>
      <point x="358" y="132"/>
      <point x="420" y="169"/>
      <point x="459" y="237" type="curve"/>
      <point x="414" y="287" type="line"/>
      <point x="414" y="178" type="line" smooth="yes"/>
      <point x="414" y="109"/>
      <point x="390" y="76"/>
      <point x="308" y="76" type="curve" smooth="yes"/>
      <point x="254" y="76"/>
      <point x="190" y="96"/>
      <point x="143" y="126" type="curve"/>
      <point x="60" y="-31" type="line"/>
      <point x="124" y="-72"/>
      <point x="212" y="-98"/>
    </contour>
  </outline>
</glyph>
